{
  "accessors": [
    {
      "bufferView": 2,
      "componentType": 5126,
      "count": 3769,
      "max": [
        27.597942352294922,
        24.062549591064453,
        54.22425842285156
      ],
      "min": [
        -28.391864776611328,
        -22.421031951904297,
        -9.910003662109375
      ],
      "type": "VEC3"
    },
    {
      "bufferView": 2,
      "byteOffset": 45228,
      "componentType": 5126,
      "count": 3769,
      "max": [
        1.0,
        1.0,
        1.0
      ],
      "min": [
        -1.0,
        -1.0,
        -1.0
      ],
      "type": "VEC3"
    },
    {
      "bufferView": 3,
      "componentType": 5126,
      "count": 3769,
      "max": [
        1.0,
        0.9993721842765808,
        0.9998462200164795,
        1.0
      ],
      "min": [
        -0.9999992251396179,
        -0.9994045495986938,
        -0.9999855160713196,
        -1.0
      ],
      "type": "VEC4"
    },
    {
      "bufferView": 1,
      "componentType": 5126,
      "count": 3769,
      "max": [
        0.9999999403953552,
        0.9817296862602234
      ],
      "min": [
        0.0,
        0.0
      ],
      "type": "VEC2"
    },
    {
      "bufferView": 1,
      "byteOffset": 30152,
      "componentType": 5126,
      "count": 3769,
      "max": [
        16.65277099609375,
        6.8150315284729
      ],
      "min": [
        -39.3370361328125,
        -39.668548583984375
      ],
      "type": "VEC2"
    },
    {
      "bufferView": 1,
      "byteOffset": 60304,
      "componentType": 5126,
      "count": 3769,
      "max": [
        0.9999999403953552,
        0.9817296862602234
      ],
      "min": [
        0.0,
        0.0
      ],
      "type": "VEC2"
    },
    {
      "bufferView": 0,
      "componentType": 5125,
      "count": 8724,
      "type": "SCALAR"
    }
  ],
  "asset": {
    "extras": {
      "author": "alan.gonzalez.leon (https://sketchfab.com/alan.gonzalez.leon)",
      "license": "CC-BY-4.0 (http://creativecommons.org/licenses/by/4.0/)",
      "source": "https://sketchfab.com/3d-models/mochilabackpack-7661ec0d555947af8f7b5279f5df8bd5",
      "title": "Mochila/backpack"
    },
    "generator": "Sketchfab-12.65.0",
    "version": "2.0"
  },
  "bufferViews": [
    {
      "buffer": 0,
      "byteLength": 34896,
      "name": "floatBufferViews",
      "target": 34963
    },
    {
      "buffer": 0,
      "byteLength": 90456,
      "byteOffset": 34896,
      "byteStride": 8,
      "name": "floatBufferViews",
      "target": 34962
    },
    {
      "buffer": 0,
      "byteLength": 90456,
      "byteOffset": 125352,
      "byteStride": 12,
      "name": "floatBufferViews",
      "target": 34962
    },
    {
      "buffer": 0,
      "byteLength": 60304,
      "byteOffset": 215808,
      "byteStride": 16,
      "name": "floatBufferViews",
      "target": 34962
    }
  ],
  "buffers": [
    {
      "byteLength": 276112,
      "uri": "scene.bin"
    }
  ],
  "images": [
    {
      "uri": "textures/Mat_Mochila_baseColor.jpeg"
    },
    {
      "uri": "textures/Mat_Mochila_normal.png"
    }
  ],
  "materials": [
    {
      "doubleSided": true,
      "name": "Mat_Mochila",
      "normalTexture": {
        "index": 1
      },
      "pbrMetallicRoughness": {
        "baseColorTexture": {
          "index": 0
        },
        "metallicFactor": 0.0,
        "roughnessFactor": 0.8929713596
      }
    }
  ],
  "meshes": [
    {
      "name": "Bolsa_Mochila_Mat_Mochila_0",
      "primitives": [
        {
          "attributes": {
            "NORMAL": 1,
            "POSITION": 0,
            "TANGENT": 2,
            "TEXCOORD_0": 3,
            "TEXCOORD_1": 4,
            "TEXCOORD_2": 5
          },
          "indices": 6,
          "material": 0,
          "mode": 4
        }
      ]
    }
  ],
  "nodes": [
    {
      "children": [
        1
      ],
      "matrix": [
        1.0,
        0.0,
        0.0,
        0.0,
        0.0,
        2.220446049250313e-16,
        -1.0,
        0.0,
        0.0,
        1.0,
        2.220446049250313e-16,
        0.0,
        0.0,
        0.0,
        0.0,
        1.0
      ],
      "name": "Sketchfab_model"
    },
    {
      "children": [
        2
      ],
      "matrix": [
        1.0,
        0.0,
        0.0,
        0.0,
        0.0,
        0.0,
        1.0,
        0.0,
        0.0,
        -1.0,
        0.0,
        0.0,
        0.0,
        0.0,
        0.0,
        1.0
      ],
      "name": "e4626fbad8e349f28a392e3d95647a44.fbx"
    },
    {
      "children": [
        3
      ],
      "name": "RootNode"
    },
    {
      "children": [
        4
      ],
      "matrix": [
        1.0,
        0.0,
        0.0,
        0.0,
        0.0,
        2.220446049250313e-16,
        -1.0,
        0.0,
        0.0,
        1.0,
        2.220446049250313e-16,
        0.0,
        0.0,
        0.0,
        0.0,
        1.0
      ],
      "name": "Bolsa_Mochila"
    },
    {
      "mesh": 0,
      "name": "Bolsa_Mochila_Mat_Mochila_0"
    }
  ],
  "samplers": [
    {
      "magFilter": 9729,
      "minFilter": 9987,
      "wrapS": 10497,
      "wrapT": 10497
    }
  ],
  "scene": 0,
  "scenes": [
    {
      "name": "Sketchfab_Scene",
      "nodes": [
        0
      ]
    }
  ],
  "textures": [
    {
      "sampler": 0,
      "source": 0
    },
    {
      "sampler": 0,
      "source": 1
    }
  ]
}
