{
  "accessors": [
    {
      "bufferView": 2,
      "componentType": 5126,
      "count": 3609,
      "max": [
        0.5919219851493835,
        0.36802899837493896,
        0.9904940128326416
      ],
      "min": [
        -0.5919219851493835,
        -0.00906344037503004,
        -0.6060010194778442
      ],
      "type": "VEC3"
    },
    {
      "bufferView": 2,
      "byteOffset": 43308,
      "componentType": 5126,
      "count": 3609,
      "max": [
        0.9998387694358826,
        0.9999728798866272,
        0.9995666146278381
      ],
      "min": [
        -0.9998034834861755,
        -0.8595451712608337,
        -0.9998044967651367
      ],
      "type": "VEC3"
    },
    {
      "bufferView": 3,
      "componentType": 5126,
      "count": 3609,
      "max": [
        0.999327540397644,
        0.9992383122444153,
        0.9982110261917114,
        1.0
      ],
      "min": [
        -0.9820042252540588,
        -0.9897759556770325,
        -0.9998752474784851,
        -1.0
      ],
      "type": "VEC4"
    },
    {
      "bufferView": 1,
      "componentType": 5126,
      "count": 3609,
      "max": [
        0.9971780180931091,
        0.9989619851112366
      ],
      "min": [
        0.6579070091247559,
        0.00044271801016293466
      ],
      "type": "VEC2"
    },
    {
      "bufferView": 1,
      "byteOffset": 28872,
      "componentType": 5126,
      "count": 3609,
      "max": [
        0.0,
        0.0
      ],
      "min": [
        0.0,
        0.0
      ],
      "type": "VEC2"
    },
    {
      "bufferView": 0,
      "componentType": 5125,
      "count": 17424,
      "type": "SCALAR"
    },
    {
      "bufferView": 2,
      "byteOffset": 86616,
      "componentType": 5126,
      "count": 18878,
      "max": [
        0.7273060083389282,
        0.5303390026092529,
        1.0
      ],
      "min": [
        -0.7273060083389282,
        -0.5303390026092529,
        -1.0
      ],
      "type": "VEC3"
    },
    {
      "bufferView": 2,
      "byteOffset": 313152,
      "componentType": 5126,
      "count": 18878,
      "max": [
        0.9983170032501221,
        0.9999823570251465,
        0.9952088594436646
      ],
      "min": [
        -0.9983170032501221,
        -0.9999920129776001,
        -0.9993734955787659
      ],
      "type": "VEC3"
    },
    {
      "bufferView": 3,
      "byteOffset": 57744,
      "componentType": 5126,
      "count": 18878,
      "max": [
        1.0,
        0.9969213604927063,
        0.9976158738136292,
        1.0
      ],
      "min": [
        -0.9591178894042969,
        -0.9969244599342346,
        -0.9999865293502808,
        1.0
      ],
      "type": "VEC4"
    },
    {
      "bufferView": 1,
      "byteOffset": 57744,
      "componentType": 5126,
      "count": 18878,
      "max": [
        0.9995570182800293,
        0.9911460280418396
      ],
      "min": [
        0.00044271801016293466,
        0.00044271801016293466
      ],
      "type": "VEC2"
    },
    {
      "bufferView": 1,
      "byteOffset": 208768,
      "componentType": 5126,
      "count": 18878,
      "max": [
        0.0,
        0.0
      ],
      "min": [
        0.0,
        0.0
      ],
      "type": "VEC2"
    },
    {
      "bufferView": 0,
      "byteOffset": 69696,
      "componentType": 5125,
      "count": 102708,
      "type": "SCALAR"
    }
  ],
  "asset": {
    "extras": {
      "author": "Multipainkiller Studio (https://sketchfab.com/Multipainkiller_Studio)",
      "license": "CC-BY-4.0 (http://creativecommons.org/licenses/by/4.0/)",
      "source": "https://sketchfab.com/3d-models/guy-fawkes-mask-v1-free-ffdc746cabc647259fc494c151dc3d8f",
      "title": "Guy Fawkes Mask - v.1 FREE"
    },
    "generator": "Sketchfab-15.25.0",
    "version": "2.0"
  },
  "bufferViews": [
    {
      "buffer": 0,
      "byteLength": 480528,
      "name": "floatBufferViews",
      "target": 34963
    },
    {
      "buffer": 0,
      "byteLength": 359792,
      "byteOffset": 480528,
      "byteStride": 8,
      "name": "floatBufferViews",
      "target": 34962
    },
    {
      "buffer": 0,
      "byteLength": 539688,
      "byteOffset": 840320,
      "byteStride": 12,
      "name": "floatBufferViews",
      "target": 34962
    },
    {
      "buffer": 0,
      "byteLength": 359792,
      "byteOffset": 1380008,
      "byteStride": 16,
      "name": "floatBufferViews",
      "target": 34962
    }
  ],
  "buffers": [
    {
      "byteLength": 1739800,
      "uri": "scene.bin"
    }
  ],
  "extensionsUsed": [
    "KHR_materials_specular"
  ],
  "images": [
    {
      "uri": "textures/M_Mask_baseColor.jpeg"
    },
    {
      "uri": "textures/M_Mask_metallicRoughness.png"
    },
    {
      "uri": "textures/M_Mask_normal.jpeg"
    },
    {
      "uri": "textures/M_Goatee_baseColor.jpeg"
    },
    {
      "uri": "textures/M_Goatee_metallicRoughness.png"
    },
    {
      "uri": "textures/M_Goatee_normal.jpeg"
    }
  ],
  "materials": [
    {
      "extensions": {
        "KHR_materials_specular": {
          "specularColorFactor": [
            1.0,
            1.0,
            1.0
          ],
          "specularFactor": 0.013910060975609758
        }
      },
      "name": "M_Mask",
      "normalTexture": {
        "index": 2
      },
      "occlusionTexture": {
        "index": 1
      },
      "pbrMetallicRoughness": {
        "baseColorTexture": {
          "index": 0
        },
        "metallicRoughnessTexture": {
          "index": 1
        }
      }
    },
    {
      "extensions": {
        "KHR_materials_specular": {
          "specularColorFactor": [
            1.0,
            1.0,
            1.0
          ],
          "specularFactor": 0.1053734756097561
        }
      },
      "name": "M_Goatee",
      "normalTexture": {
        "index": 5
      },
      "occlusionTexture": {
        "index": 4
      },
      "pbrMetallicRoughness": {
        "baseColorTexture": {
          "index": 3
        },
        "metallicRoughnessTexture": {
          "index": 4
        }
      }
    }
  ],
  "meshes": [
    {
      "name": "defaultMaterial",
      "primitives": [
        {
          "attributes": {
            "NORMAL": 1,
            "POSITION": 0,
            "TANGENT": 2,
            "TEXCOORD_0": 3,
            "TEXCOORD_1": 4
          },
          "indices": 5,
          "material": 1,
          "mode": 4
        }
      ]
    },
    {
      "name": "defaultMaterial",
      "primitives": [
        {
          "attributes": {
            "NORMAL": 7,
            "POSITION": 6,
            "TANGENT": 8,
            "TEXCOORD_0": 9,
            "TEXCOORD_1": 10
          },
          "indices": 11,
          "material": 0,
          "mode": 4
        }
      ]
    }
  ],
  "nodes": [
    {
      "children": [
        1
      ],
      "matrix": [
        1.0,
        0.0,
        0.0,
        0.0,
        0.0,
        2.220446049250313e-16,
        -1.0,
        0.0,
        0.0,
        1.0,
        2.220446049250313e-16,
        0.0,
        0.0,
        0.0,
        0.0,
        1.0
      ],
      "name": "Sketchfab_model"
    },
    {
      "children": [
        2,
        4
      ],
      "matrix": [
        1.0,
        0.0,
        0.0,
        0.0,
        0.0,
        -4.371139006309477e-08,
        0.999999999999999,
        0.0,
        0.0,
        -0.999999999999999,
        -4.371139006309477e-08,
        0.0,
        0.0,
        0.0,
        0.0,
        1.0
      ],
      "name": "Collada visual scene group"
    },
    {
      "children": [
        3
      ],
      "name": "SM_GuyFawkes_Mask"
    },
    {
      "mesh": 0,
      "name": "defaultMaterial"
    },
    {
      "children": [
        5
      ],
      "name": "SM_GuyFawkes_Mask"
    },
    {
      "mesh": 1,
      "name": "defaultMaterial"
    }
  ],
  "samplers": [
    {
      "magFilter": 9729,
      "minFilter": 9987,
      "wrapS": 10497,
      "wrapT": 10497
    }
  ],
  "scene": 0,
  "scenes": [
    {
      "name": "Sketchfab_Scene",
      "nodes": [
        0
      ]
    }
  ],
  "textures": [
    {
      "sampler": 0,
      "source": 0
    },
    {
      "sampler": 0,
      "source": 1
    },
    {
      "sampler": 0,
      "source": 2
    },
    {
      "sampler": 0,
      "source": 3
    },
    {
      "sampler": 0,
      "source": 4
    },
    {
      "sampler": 0,
      "source": 5
    }
  ]
}
