{
  "accessors": [
    {
      "bufferView": 0,
      "componentType": 5123,
      "count": 7494,
      "max": [
        4838
      ],
      "min": [
        0
      ],
      "type": "SCALAR"
    },
    {
      "bufferView": 1,
      "componentType": 5126,
      "count": 4839,
      "max": [
        37.029582977294922,
        61.027099609375,
        29.907407760620117
      ],
      "min": [
        -95.140785217285156,
        -76.219924926757812,
        -101.27241516113281
      ],
      "type": "VEC3"
    },
    {
      "bufferView": 2,
      "componentType": 5126,
      "count": 4839,
      "max": [
        0.99902456998825073,
        0.9990384578704834
      ],
      "min": [
        0.00097540061688050628,
        0.00096154416678473353
      ],
      "type": "VEC2"
    },
    {
      "bufferView": 3,
      "componentType": 5126,
      "count": 4839,
      "max": [
        0.99999052286148071,
        0.99998652935028076,
        0.99982088804244995
      ],
      "min": [
        -0.99999052286148071,
        -0.99992978572845459,
        -0.99982088804244995
      ],
      "type": "VEC3"
    }
  ],
  "asset": {
    "generator": "Created by RapidCompact v6.3.1 | www.rapidcompact.com",
    "version": "2.0"
  },
  "bufferViews": [
    {
      "buffer": 0,
      "byteLength": 14988,
      "byteOffset": 0,
      "target": 34963
    },
    {
      "buffer": 0,
      "byteLength": 58068,
      "byteOffset": 14988,
      "byteStride": 12,
      "target": 34962
    },
    {
      "buffer": 0,
      "byteLength": 38712,
      "byteOffset": 73056,
      "byteStride": 8,
      "target": 34962
    },
    {
      "buffer": 0,
      "byteLength": 58068,
      "byteOffset": 111768,
      "byteStride": 12,
      "target": 34962
    }
  ],
  "buffers": [
    {
      "byteLength": 169836,
      "uri": "rapid.data.bin"
    }
  ],
  "images": [
    {
      "uri": "material0_basecolor.jpg"
    },
    {
      "uri": "material0_normal.jpg"
    },
    {
      "uri": "material0_emissive.jpg"
    },
    {
      "uri": "material0_metallic_roughness.jpg"
    }
  ],
  "materials": [
    {
      "doubleSided": true,
      "emissiveFactor": [
        1,
        1,
        1
      ],
      "emissiveTexture": {
        "index": 2
      },
      "normalTexture": {
        "index": 1
      },
      "pbrMetallicRoughness": {
        "baseColorTexture": {
          "index": 0
        },
        "metallicRoughnessTexture": {
          "index": 3
        }
      }
    }
  ],
  "meshes": [
    {
      "primitives": [
        {
          "attributes": {
            "NORMAL": 3,
            "POSITION": 1,
            "TEXCOORD_0": 2
          },
          "indices": 0,
          "material": 0,
          "mode": 4
        }
      ]
    }
  ],
  "nodes": [
    {
      "mesh": 0
    }
  ],
  "samplers": [
    {
      "wrapS": 33071,
      "wrapT": 33071
    }
  ],
  "scene": 0,
  "scenes": [
    {
      "nodes": [
        0
      ]
    }
  ],
  "textures": [
    {
      "sampler": 0,
      "source": 0
    },
    {
      "sampler": 0,
      "source": 1
    },
    {
      "sampler": 0,
      "source": 2
    },
    {
      "sampler": 0,
      "source": 3
    }
  ]
}
