{
  "accessors": [
    {
      "bufferView": 2,
      "componentType": 5126,
      "count": 3495,
      "max": [
        593.5435791015625,
        857.8338623046875,
        589.5428466796875
      ],
      "min": [
        -593.5435791015625,
        2.269014596939087,
        -795.957275390625
      ],
      "type": "VEC3"
    },
    {
      "bufferView": 2,
      "byteOffset": 41940,
      "componentType": 5126,
      "count": 3495,
      "max": [
        1.0,
        1.0,
        1.0
      ],
      "min": [
        -1.0,
        -1.0,
        -1.0
      ],
      "type": "VEC3"
    },
    {
      "bufferView": 3,
      "componentType": 5126,
      "count": 3495,
      "max": [
        1.0,
        1.0,
        1.0,
        1.0
      ],
      "min": [
        -1.0,
        -1.0,
        -1.0,
        -1.0
      ],
      "type": "VEC4"
    },
    {
      "bufferView": 1,
      "componentType": 5126,
      "count": 3495,
      "max": [
        0.9980900287628174,
        1.0003299713134766
      ],
      "min": [
        0.0031500000040978193,
        0.0037400000728666782
      ],
      "type": "VEC2"
    },
    {
      "bufferView": 1,
      "byteOffset": 27960,
      "componentType": 5126,
      "count": 3495,
      "max": [
        0.9980900287628174,
        1.0003299713134766
      ],
      "min": [
        0.0031500000040978193,
        0.0037400000728666782
      ],
      "type": "VEC2"
    },
    {
      "bufferView": 0,
      "componentType": 5125,
      "count": 14286,
      "type": "SCALAR"
    },
    {
      "bufferView": 2,
      "byteOffset": 83880,
      "componentType": 5126,
      "count": 1031,
      "max": [
        360.5085144042969,
        1437.8929443359375,
        187.2179718017578
      ],
      "min": [
        -360.5085144042969,
        668.3959350585938,
        -334.3522644042969
      ],
      "type": "VEC3"
    },
    {
      "bufferView": 2,
      "byteOffset": 96252,
      "componentType": 5126,
      "count": 1031,
      "max": [
        1.0,
        1.0,
        1.0
      ],
      "min": [
        -1.0,
        -1.0,
        -1.0
      ],
      "type": "VEC3"
    },
    {
      "bufferView": 3,
      "byteOffset": 55920,
      "componentType": 5126,
      "count": 1031,
      "max": [
        0.9998196959495544,
        1.0,
        1.0,
        1.0
      ],
      "min": [
        -1.0,
        -1.0,
        -1.0,
        -1.0
      ],
      "type": "VEC4"
    },
    {
      "bufferView": 1,
      "byteOffset": 55920,
      "componentType": 5126,
      "count": 1031,
      "max": [
        0.9973700046539307,
        0.9981300234794617
      ],
      "min": [
        0.003220000071451068,
        0.0024300001095980406
      ],
      "type": "VEC2"
    },
    {
      "bufferView": 1,
      "byteOffset": 64168,
      "componentType": 5126,
      "count": 1031,
      "max": [
        0.9973700046539307,
        0.9981300234794617
      ],
      "min": [
        0.003220000071451068,
        0.0024300001095980406
      ],
      "type": "VEC2"
    },
    {
      "bufferView": 0,
      "byteOffset": 57144,
      "componentType": 5125,
      "count": 3834,
      "type": "SCALAR"
    },
    {
      "bufferView": 2,
      "byteOffset": 108624,
      "componentType": 5126,
      "count": 2384,
      "max": [
        763.5619506835938,
        2333.39111328125,
        762.1306762695313
      ],
      "min": [
        -766.36376953125,
        1189.5516357421875,
        -767.978271484375
      ],
      "type": "VEC3"
    },
    {
      "bufferView": 2,
      "byteOffset": 137232,
      "componentType": 5126,
      "count": 2384,
      "max": [
        1.0,
        1.0,
        0.9999991059303284
      ],
      "min": [
        -1.0,
        -1.0,
        -0.9999991059303284
      ],
      "type": "VEC3"
    },
    {
      "bufferView": 3,
      "byteOffset": 72416,
      "componentType": 5126,
      "count": 2384,
      "max": [
        1.0,
        0.9999804496765137,
        0.9999992251396179,
        1.0
      ],
      "min": [
        -1.0,
        -0.9999711513519287,
        -0.9999991655349731,
        1.0
      ],
      "type": "VEC4"
    },
    {
      "bufferView": 1,
      "byteOffset": 72416,
      "componentType": 5126,
      "count": 2384,
      "max": [
        0.9987300038337708,
        0.9981600046157837
      ],
      "min": [
        0.0025500000920146704,
        0.0025599999353289604
      ],
      "type": "VEC2"
    },
    {
      "bufferView": 1,
      "byteOffset": 91488,
      "componentType": 5126,
      "count": 2384,
      "max": [
        0.9987300038337708,
        0.9981600046157837
      ],
      "min": [
        0.0025500000920146704,
        0.0025599999353289604
      ],
      "type": "VEC2"
    },
    {
      "bufferView": 0,
      "byteOffset": 72480,
      "componentType": 5125,
      "count": 8100,
      "type": "SCALAR"
    }
  ],
  "asset": {
    "extras": {
      "author": "Duane's Mind (https://sketchfab.com/duanesmind)",
      "license": "CC-BY-4.0 (http://creativecommons.org/licenses/by/4.0/)",
      "source": "https://sketchfab.com/3d-models/satellite-comms-4be56951da39429a963ee12140bbff57",
      "title": "Satellite Comms"
    },
    "generator": "Sketchfab-12.68.0",
    "version": "2.0"
  },
  "bufferViews": [
    {
      "buffer": 0,
      "byteLength": 104880,
      "name": "floatBufferViews",
      "target": 34963
    },
    {
      "buffer": 0,
      "byteLength": 110560,
      "byteOffset": 104880,
      "byteStride": 8,
      "name": "floatBufferViews",
      "target": 34962
    },
    {
      "buffer": 0,
      "byteLength": 165840,
      "byteOffset": 215440,
      "byteStride": 12,
      "name": "floatBufferViews",
      "target": 34962
    },
    {
      "buffer": 0,
      "byteLength": 110560,
      "byteOffset": 381280,
      "byteStride": 16,
      "name": "floatBufferViews",
      "target": 34962
    }
  ],
  "buffers": [
    {
      "byteLength": 491840,
      "uri": "scene.bin"
    }
  ],
  "images": [
    {
      "uri": "textures/Material_baseColor.png"
    },
    {
      "uri": "textures/Material_normal.png"
    }
  ],
  "materials": [
    {
      "doubleSided": true,
      "name": "Material",
      "normalTexture": {
        "index": 1
      },
      "pbrMetallicRoughness": {
        "baseColorTexture": {
          "index": 0
        },
        "metallicFactor": 0.4441287878787879,
        "roughnessFactor": 0.85625
      }
    }
  ],
  "meshes": [
    {
      "name": "Base_Material_0",
      "primitives": [
        {
          "attributes": {
            "NORMAL": 1,
            "POSITION": 0,
            "TANGENT": 2,
            "TEXCOORD_0": 3,
            "TEXCOORD_1": 4
          },
          "indices": 5,
          "material": 0,
          "mode": 4
        }
      ]
    },
    {
      "name": "Arm_Material_0",
      "primitives": [
        {
          "attributes": {
            "NORMAL": 7,
            "POSITION": 6,
            "TANGENT": 8,
            "TEXCOORD_0": 9,
            "TEXCOORD_1": 10
          },
          "indices": 11,
          "material": 0,
          "mode": 4
        }
      ]
    },
    {
      "name": "Dish_Material_0",
      "primitives": [
        {
          "attributes": {
            "NORMAL": 13,
            "POSITION": 12,
            "TANGENT": 14,
            "TEXCOORD_0": 15,
            "TEXCOORD_1": 16
          },
          "indices": 17,
          "material": 0,
          "mode": 4
        }
      ]
    }
  ],
  "nodes": [
    {
      "children": [
        1
      ],
      "matrix": [
        0.7594656348228455,
        0.0,
        0.0,
        0.0,
        0.0,
        1.6863524683837682e-16,
        -0.7594656348228455,
        0.0,
        0.0,
        0.7594656348228455,
        1.6863524683837682e-16,
        0.0,
        0.0,
        0.0,
        0.0,
        1.0
      ],
      "name": "Sketchfab_model"
    },
    {
      "children": [
        2
      ],
      "matrix": [
        1.0,
        0.0,
        0.0,
        0.0,
        0.0,
        0.0,
        1.0,
        0.0,
        0.0,
        -1.0,
        0.0,
        0.0,
        0.0,
        0.0,
        0.0,
        1.0
      ],
      "name": "e8170c412771450a85ddcc41c8337862.fbx"
    },
    {
      "children": [
        3
      ],
      "name": "RootNode"
    },
    {
      "children": [
        4,
        5
      ],
      "matrix": [
        0.009999999776482582,
        0.0,
        0.0,
        0.0,
        0.0,
        0.009999999776482582,
        0.0,
        0.0,
        0.0,
        0.0,
        0.009999999776482582,
        0.0,
        0.0,
        0.0,
        0.0,
        1.0
      ],
      "name": "Base"
    },
    {
      "mesh": 0,
      "name": "Base_Material_0"
    },
    {
      "children": [
        6,
        7
      ],
      "name": "Arm"
    },
    {
      "mesh": 1,
      "name": "Arm_Material_0"
    },
    {
      "children": [
        8
      ],
      "matrix": [
        1.0,
        0.0,
        0.0,
        0.0,
        0.0,
        0.6415284457910544,
        0.7670992460176939,
        0.0,
        0.0,
        -0.7670992460176939,
        0.6415284457910544,
        0.0,
        0.0,
        471.1315612792969,
        -1008.1823120117188,
        1.0
      ],
      "name": "Dish"
    },
    {
      "mesh": 2,
      "name": "Dish_Material_0"
    }
  ],
  "samplers": [
    {
      "magFilter": 9729,
      "minFilter": 9987,
      "wrapS": 10497,
      "wrapT": 10497
    }
  ],
  "scene": 0,
  "scenes": [
    {
      "name": "Sketchfab_Scene",
      "nodes": [
        0
      ]
    }
  ],
  "textures": [
    {
      "sampler": 0,
      "source": 0
    },
    {
      "sampler": 0,
      "source": 1
    }
  ]
}
