{
  "accessors": [
    {
      "bufferView": 2,
      "componentType": 5126,
      "count": 1244,
      "max": [
        1.0,
        0.9703029990196228,
        0.886489987373352
      ],
      "min": [
        -1.0,
        -0.9703029990196228,
        -0.886489987373352
      ],
      "type": "VEC3"
    },
    {
      "bufferView": 2,
      "byteOffset": 14928,
      "componentType": 5126,
      "count": 1244,
      "max": [
        1.0,
        0.9958877563476563,
        0.9991594552993774
      ],
      "min": [
        -1.0,
        -0.99904865026474,
        -0.9986794590950012
      ],
      "type": "VEC3"
    },
    {
      "bufferView": 3,
      "componentType": 5126,
      "count": 1244,
      "max": [
        1.0,
        0.9999020099639893,
        0.9940990209579468,
        1.0
      ],
      "min": [
        -0.9975709915161133,
        -0.9995880126953125,
        -0.9996219873428345,
        -1.0
      ],
      "type": "VEC4"
    },
    {
      "bufferView": 1,
      "componentType": 5126,
      "count": 1244,
      "max": [
        0.9969879984855652,
        0.9947289824485779
      ],
      "min": [
        0.012025600299239159,
        0.0020000000949949026
      ],
      "type": "VEC2"
    },
    {
      "bufferView": 0,
      "componentType": 5125,
      "count": 4596,
      "type": "SCALAR"
    }
  ],
  "asset": {
    "extras": {
      "author": "Thomas Lean (https://sketchfab.com/thomaslean)",
      "license": "CC-BY-4.0 (http://creativecommons.org/licenses/by/4.0/)",
      "source": "https://sketchfab.com/3d-models/a-backpack-for-an-adventure-2ad86321197a49feb54b7726743d7fd0",
      "title": "A Backpack For An Adventure"
    },
    "generator": "Sketchfab-12.66.0",
    "version": "2.0"
  },
  "bufferViews": [
    {
      "buffer": 0,
      "byteLength": 18384,
      "name": "floatBufferViews",
      "target": 34963
    },
    {
      "buffer": 0,
      "byteLength": 9952,
      "byteOffset": 18384,
      "byteStride": 8,
      "name": "floatBufferViews",
      "target": 34962
    },
    {
      "buffer": 0,
      "byteLength": 29856,
      "byteOffset": 28336,
      "byteStride": 12,
      "name": "floatBufferViews",
      "target": 34962
    },
    {
      "buffer": 0,
      "byteLength": 19904,
      "byteOffset": 58192,
      "byteStride": 16,
      "name": "floatBufferViews",
      "target": 34962
    }
  ],
  "buffers": [
    {
      "byteLength": 78096,
      "uri": "scene.bin"
    }
  ],
  "images": [
    {
      "uri": "textures/DefaultMaterial_baseColor.jpeg"
    },
    {
      "uri": "textures/DefaultMaterial_metallicRoughness.png"
    },
    {
      "uri": "textures/DefaultMaterial_normal.jpeg"
    }
  ],
  "materials": [
    {
      "doubleSided": true,
      "name": "DefaultMaterial",
      "normalTexture": {
        "index": 2
      },
      "occlusionTexture": {
        "index": 1
      },
      "pbrMetallicRoughness": {
        "baseColorTexture": {
          "index": 0
        },
        "metallicFactor": 0.7212271341463415,
        "metallicRoughnessTexture": {
          "index": 1
        }
      }
    }
  ],
  "meshes": [
    {
      "name": "defaultMaterial",
      "primitives": [
        {
          "attributes": {
            "NORMAL": 1,
            "POSITION": 0,
            "TANGENT": 2,
            "TEXCOORD_0": 3
          },
          "indices": 4,
          "material": 0,
          "mode": 4
        }
      ]
    }
  ],
  "nodes": [
    {
      "children": [
        1
      ],
      "matrix": [
        0.4724506735801697,
        0.0,
        0.0,
        0.0,
        0.0,
        1.049051231616737e-16,
        -0.4724506735801697,
        0.0,
        0.0,
        0.4724506735801697,
        1.049051231616737e-16,
        0.0,
        0.0,
        0.0,
        0.0,
        1.0
      ],
      "name": "Sketchfab_model"
    },
    {
      "children": [
        2
      ],
      "matrix": [
        1.0,
        0.0,
        0.0,
        0.0,
        0.0,
        -4.371139006309477e-08,
        0.999999999999999,
        0.0,
        0.0,
        -0.999999999999999,
        -4.371139006309477e-08,
        0.0,
        0.0,
        0.0,
        0.0,
        1.0
      ],
      "name": "Collada visual scene group"
    },
    {
      "children": [
        3
      ],
      "name": "Cylinder025"
    },
    {
      "mesh": 0,
      "name": "defaultMaterial"
    }
  ],
  "samplers": [
    {
      "magFilter": 9729,
      "minFilter": 9987,
      "wrapS": 10497,
      "wrapT": 10497
    }
  ],
  "scene": 0,
  "scenes": [
    {
      "name": "Sketchfab_Scene",
      "nodes": [
        0
      ]
    }
  ],
  "textures": [
    {
      "sampler": 0,
      "source": 0
    },
    {
      "sampler": 0,
      "source": 1
    },
    {
      "sampler": 0,
      "source": 2
    }
  ]
}
