{
  "accessors": [
    {
      "bufferView": 2,
      "componentType": 5126,
      "count": 65534,
      "max": [
        6.591357231140137,
        4.687066078186035,
        2.799927234649658
      ],
      "min": [
        -6.591357231140137,
        -1.694740891456604,
        -3.739495277404785
      ],
      "type": "VEC3"
    },
    {
      "bufferView": 2,
      "byteOffset": 786408,
      "componentType": 5126,
      "count": 65534,
      "max": [
        1.0,
        1.0,
        1.0
      ],
      "min": [
        -1.0,
        -1.0,
        -1.0
      ],
      "type": "VEC3"
    },
    {
      "bufferView": 1,
      "componentType": 5126,
      "count": 65534,
      "max": [
        7.469249248504639,
        2.499999761581421
      ],
      "min": [
        -4.499999523162842,
        -8.667563438415527
      ],
      "type": "VEC2"
    },
    {
      "bufferView": 0,
      "componentType": 5125,
      "count": 146961,
      "type": "SCALAR"
    },
    {
      "bufferView": 2,
      "byteOffset": 1572816,
      "componentType": 5126,
      "count": 65532,
      "max": [
        6.591357231140137,
        5.572315692901611,
        2.749795436859131
      ],
      "min": [
        -6.591357231140137,
        -2.463165760040283,
        -3.739495277404785
      ],
      "type": "VEC3"
    },
    {
      "bufferView": 2,
      "byteOffset": 2359200,
      "componentType": 5126,
      "count": 65532,
      "max": [
        1.0,
        1.0,
        1.0
      ],
      "min": [
        -1.0,
        -1.0,
        -1.0
      ],
      "type": "VEC3"
    },
    {
      "bufferView": 1,
      "byteOffset": 524272,
      "componentType": 5126,
      "count": 65532,
      "max": [
        7.469249248504639,
        2.412083864212036
      ],
      "min": [
        -4.499999523162842,
        -8.051658630371094
      ],
      "type": "VEC2"
    },
    {
      "bufferView": 0,
      "byteOffset": 587844,
      "componentType": 5125,
      "count": 136764,
      "type": "SCALAR"
    },
    {
      "bufferView": 2,
      "byteOffset": 3145584,
      "componentType": 5126,
      "count": 45197,
      "max": [
        6.539498329162598,
        3.943030834197998,
        2.799927234649658
      ],
      "min": [
        -0.9962121248245239,
        -1.694740891456604,
        -3.739495277404785
      ],
      "type": "VEC3"
    },
    {
      "bufferView": 2,
      "byteOffset": 3687948,
      "componentType": 5126,
      "count": 45197,
      "max": [
        1.0,
        1.0,
        1.0
      ],
      "min": [
        -1.0,
        -1.0,
        -1.0
      ],
      "type": "VEC3"
    },
    {
      "bufferView": 1,
      "byteOffset": 1048528,
      "componentType": 5126,
      "count": 45197,
      "max": [
        7.4303483963012695,
        2.499999761581421
      ],
      "min": [
        -4.499999523162842,
        -8.321948051452637
      ],
      "type": "VEC2"
    },
    {
      "bufferView": 0,
      "byteOffset": 1134900,
      "componentType": 5125,
      "count": 91995,
      "type": "SCALAR"
    },
    {
      "bufferView": 2,
      "byteOffset": 4230312,
      "componentType": 5126,
      "count": 5734,
      "max": [
        0.8257215023040771,
        -1.8594967126846313,
        0.8257215619087219
      ],
      "min": [
        -0.8257220983505249,
        -2.23073148727417,
        -0.8257220387458801
      ],
      "type": "VEC3"
    },
    {
      "bufferView": 2,
      "byteOffset": 4299120,
      "componentType": 5126,
      "count": 5734,
      "max": [
        1.0,
        1.0,
        1.0
      ],
      "min": [
        -1.0,
        -1.0,
        -1.0
      ],
      "type": "VEC3"
    },
    {
      "bufferView": 1,
      "byteOffset": 1410104,
      "componentType": 5126,
      "count": 5734,
      "max": [
        1.0,
        1.0
      ],
      "min": [
        0.0,
        0.0
      ],
      "type": "VEC2"
    },
    {
      "bufferView": 0,
      "byteOffset": 1502880,
      "componentType": 5125,
      "count": 11040,
      "type": "SCALAR"
    },
    {
      "bufferView": 2,
      "byteOffset": 4367928,
      "componentType": 5126,
      "count": 1050,
      "max": [
        0.7492684125900269,
        -0.2722388207912445,
        0.7492648959159851
      ],
      "min": [
        -0.7492657899856567,
        -1.7941160202026367,
        -0.7492652535438538
      ],
      "type": "VEC3"
    },
    {
      "bufferView": 2,
      "byteOffset": 4380528,
      "componentType": 5126,
      "count": 1050,
      "max": [
        1.0,
        1.0,
        1.0
      ],
      "min": [
        -1.0,
        -1.0,
        -1.0
      ],
      "type": "VEC3"
    },
    {
      "bufferView": 1,
      "byteOffset": 1455976,
      "componentType": 5126,
      "count": 1050,
      "max": [
        0.875,
        1.0
      ],
      "min": [
        0.0,
        0.0
      ],
      "type": "VEC2"
    },
    {
      "bufferView": 0,
      "byteOffset": 1547040,
      "componentType": 5125,
      "count": 1986,
      "type": "SCALAR"
    },
    {
      "bufferView": 2,
      "byteOffset": 4393128,
      "componentType": 5126,
      "count": 1200,
      "max": [
        3.4886693954467773,
        3.959129810333252,
        1.402370572090149
      ],
      "min": [
        -3.4886693954467773,
        3.8409852981567383,
        -1.402370572090149
      ],
      "type": "VEC3"
    },
    {
      "bufferView": 2,
      "byteOffset": 4407528,
      "componentType": 5126,
      "count": 1200,
      "max": [
        1.0,
        1.0,
        1.0
      ],
      "min": [
        -1.0,
        -2.197906724177301e-06,
        -1.0
      ],
      "type": "VEC3"
    },
    {
      "bufferView": 1,
      "byteOffset": 1464376,
      "componentType": 5126,
      "count": 1200,
      "max": [
        0.49000000953674316,
        0.49000000953674316
      ],
      "min": [
        0.01000000536441803,
        0.01000000536441803
      ],
      "type": "VEC2"
    },
    {
      "bufferView": 0,
      "byteOffset": 1554984,
      "componentType": 5125,
      "count": 3540,
      "type": "SCALAR"
    },
    {
      "bufferView": 2,
      "byteOffset": 4421928,
      "componentType": 5126,
      "count": 96,
      "max": [
        0.6901785135269165,
        -1.9308940172195435,
        0.690178632736206
      ],
      "min": [
        -0.6901792287826538,
        -2.1981072425842285,
        -0.6901791095733643
      ],
      "type": "VEC3"
    },
    {
      "bufferView": 2,
      "byteOffset": 4423080,
      "componentType": 5126,
      "count": 96,
      "max": [
        0.5974187254905701,
        -0.8019289970397949,
        0.5974187850952148
      ],
      "min": [
        -0.5974191427230835,
        -1.0,
        -0.5974189639091492
      ],
      "type": "VEC3"
    },
    {
      "bufferView": 1,
      "byteOffset": 1473976,
      "componentType": 5126,
      "count": 96,
      "max": [
        0.0,
        0.0
      ],
      "min": [
        0.0,
        0.0
      ],
      "type": "VEC2"
    },
    {
      "bufferView": 0,
      "byteOffset": 1569144,
      "componentType": 5125,
      "count": 282,
      "type": "SCALAR"
    },
    {
      "bufferView": 2,
      "byteOffset": 4424232,
      "componentType": 5126,
      "count": 7816,
      "max": [
        6.336214065551758,
        5.004785537719727,
        2.471008777618408
      ],
      "min": [
        -6.336214065551758,
        -2.0608530044555664,
        -2.471008777618408
      ],
      "type": "VEC3"
    },
    {
      "bufferView": 2,
      "byteOffset": 4518024,
      "componentType": 5126,
      "count": 7816,
      "max": [
        1.0,
        1.0,
        1.0
      ],
      "min": [
        -1.0,
        -1.0,
        -1.0
      ],
      "type": "VEC3"
    },
    {
      "bufferView": 1,
      "byteOffset": 1474744,
      "componentType": 5126,
      "count": 7816,
      "max": [
        0.8750000596046448,
        0.75
      ],
      "min": [
        0.125,
        0.007646992802619934
      ],
      "type": "VEC2"
    },
    {
      "bufferView": 0,
      "byteOffset": 1570272,
      "componentType": 5125,
      "count": 11736,
      "type": "SCALAR"
    },
    {
      "bufferView": 2,
      "byteOffset": 4611816,
      "componentType": 5126,
      "count": 192,
      "max": [
        3.5705957412719727,
        -0.7151742577552795,
        1.4673222303390503
      ],
      "min": [
        -3.5705957412719727,
        -0.7151743173599243,
        -1.4673222303390503
      ],
      "type": "VEC3"
    },
    {
      "bufferView": 2,
      "byteOffset": 4614120,
      "componentType": 5126,
      "count": 192,
      "max": [
        0.0,
        -1.0,
        3.2274977002089145e-07
      ],
      "min": [
        0.0,
        -1.0,
        -3.2274977002089145e-07
      ],
      "type": "VEC3"
    },
    {
      "bufferView": 1,
      "byteOffset": 1537272,
      "componentType": 5126,
      "count": 192,
      "max": [
        0.454416960477829,
        0.454416960477829
      ],
      "min": [
        0.045583032071590424,
        0.045583080500364304
      ],
      "type": "VEC2"
    },
    {
      "bufferView": 0,
      "byteOffset": 1617216,
      "componentType": 5125,
      "count": 528,
      "type": "SCALAR"
    },
    {
      "bufferView": 2,
      "byteOffset": 4616424,
      "componentType": 5126,
      "count": 13789,
      "max": [
        -0.78360915184021,
        -0.27938875555992126,
        0.6480922102928162
      ],
      "min": [
        -2.4775030612945557,
        -1.793387532234192,
        -0.9320073127746582
      ],
      "type": "VEC3"
    },
    {
      "bufferView": 2,
      "byteOffset": 4781892,
      "componentType": 5126,
      "count": 13789,
      "max": [
        1.0,
        1.0,
        1.0
      ],
      "min": [
        -1.0,
        -1.0,
        -1.0
      ],
      "type": "VEC3"
    },
    {
      "bufferView": 1,
      "byteOffset": 1538808,
      "componentType": 5126,
      "count": 13789,
      "max": [
        1.0,
        1.000001072883606
      ],
      "min": [
        -1.862645149230957e-07,
        0.0
      ],
      "type": "VEC2"
    },
    {
      "bufferView": 0,
      "byteOffset": 1619328,
      "componentType": 5125,
      "count": 32514,
      "type": "SCALAR"
    },
    {
      "bufferView": 2,
      "byteOffset": 4947360,
      "componentType": 5126,
      "count": 72,
      "max": [
        -1.4522950649261475,
        -1.3547106981277466,
        0.07974657416343689
      ],
      "min": [
        -1.8088171482086182,
        -1.4073032140731812,
        -0.12125769257545471
      ],
      "type": "VEC3"
    },
    {
      "bufferView": 2,
      "byteOffset": 4948224,
      "componentType": 5126,
      "count": 72,
      "max": [
        0.23513899743556976,
        1.0,
        0.0
      ],
      "min": [
        -0.23513859510421753,
        0.9719618558883667,
        -1.230627162840392e-06
      ],
      "type": "VEC3"
    },
    {
      "bufferView": 1,
      "byteOffset": 1649120,
      "componentType": 5126,
      "count": 72,
      "max": [
        0.0,
        0.0
      ],
      "min": [
        0.0,
        0.0
      ],
      "type": "VEC2"
    },
    {
      "bufferView": 0,
      "byteOffset": 1749384,
      "componentType": 5125,
      "count": 198,
      "type": "SCALAR"
    }
  ],
  "asset": {
    "extras": {
      "author": "Daniel (https://sketchfab.com/DanielAndersson)",
      "license": "CC-BY-4.0 (http://creativecommons.org/licenses/by/4.0/)",
      "source": "https://sketchfab.com/3d-models/star-wars-tieca-punisher-f6ce72446af44a9bb8916c911f0da795",
      "title": "Star Wars: TIE/ca Punisher"
    },
    "generator": "Sketchfab-15.10.0",
    "version": "2.0"
  },
  "bufferViews": [
    {
      "buffer": 0,
      "byteLength": 1750176,
      "name": "floatBufferViews",
      "target": 34963
    },
    {
      "buffer": 0,
      "byteLength": 1649696,
      "byteOffset": 1750176,
      "byteStride": 8,
      "name": "floatBufferViews",
      "target": 34962
    },
    {
      "buffer": 0,
      "byteLength": 4949088,
      "byteOffset": 3399872,
      "byteStride": 12,
      "name": "floatBufferViews",
      "target": 34962
    }
  ],
  "buffers": [
    {
      "byteLength": 8348960,
      "uri": "scene.bin"
    }
  ],
  "extensionsUsed": [
    "KHR_materials_emissive_strength"
  ],
  "materials": [
    {
      "doubleSided": true,
      "name": "Metal",
      "pbrMetallicRoughness": {
        "baseColorFactor": [
          0.29114,
          0.29114,
          0.29114,
          1.0
        ],
        "roughnessFactor": 0.950217062181931
      }
    },
    {
      "doubleSided": true,
      "name": "MetalDark",
      "pbrMetallicRoughness": {
        "baseColorFactor": [
          0.15090114725019055,
          0.15090114725019055,
          0.15090114725019055,
          1.0
        ],
        "roughnessFactor": 0.9198161963652726
      }
    },
    {
      "doubleSided": true,
      "name": "PolishedMetalDark",
      "pbrMetallicRoughness": {
        "baseColorFactor": [
          0.0286504,
          0.0286504,
          0.0286504,
          1.0
        ],
        "roughnessFactor": 0.5732463260553661
      }
    },
    {
      "doubleSided": true,
      "emissiveFactor": [
        1.0,
        0.0,
        0.0
      ],
      "extensions": {
        "KHR_materials_emissive_strength": {
          "emissiveStrength": 7.070101356486633
        }
      },
      "name": "RedEngineGlow",
      "pbrMetallicRoughness": {
        "baseColorFactor": [
          0.7999999999999999,
          0.007688930000000005,
          0.013123400000000025,
          1.0
        ],
        "metallicFactor": 0.0,
        "roughnessFactor": 0.9605274450525919
      }
    },
    {
      "alphaMode": "BLEND",
      "doubleSided": true,
      "name": "DarkWindow",
      "pbrMetallicRoughness": {
        "baseColorFactor": [
          0.00560467,
          0.00560467,
          0.00560467,
          0.8225334257519654
        ],
        "metallicFactor": 0.0,
        "roughnessFactor": 0.9987467576888547
      }
    },
    {
      "doubleSided": true,
      "name": "TieWIng",
      "pbrMetallicRoughness": {
        "baseColorFactor": [
          0.0168772,
          0.0168772,
          0.0168772,
          1.0
        ],
        "roughnessFactor": 0.14155403145881595
      }
    },
    {
      "doubleSided": true,
      "name": "Dark",
      "pbrMetallicRoughness": {
        "baseColorFactor": [
          0.0,
          0.0,
          0.0,
          1.0
        ],
        "metallicFactor": 0.0
      }
    },
    {
      "doubleSided": true,
      "emissiveFactor": [
        0.979986380953846,
        0.32806848943416494,
        0.006000593761883484
      ],
      "name": "BlankScreen",
      "pbrMetallicRoughness": {
        "baseColorFactor": [
          1.0,
          0.15090114725019055,
          0.0,
          1.0
        ],
        "metallicFactor": 0.0,
        "roughnessFactor": 0.8211145618000169
      }
    }
  ],
  "meshes": [
    {
      "name": "Tie Punisher_Metal_0",
      "primitives": [
        {
          "attributes": {
            "NORMAL": 1,
            "POSITION": 0,
            "TEXCOORD_0": 2
          },
          "indices": 3,
          "material": 0,
          "mode": 4
        }
      ]
    },
    {
      "name": "Tie Punisher_Metal_0",
      "primitives": [
        {
          "attributes": {
            "NORMAL": 5,
            "POSITION": 4,
            "TEXCOORD_0": 6
          },
          "indices": 7,
          "material": 0,
          "mode": 4
        }
      ]
    },
    {
      "name": "Tie Punisher_Metal_0",
      "primitives": [
        {
          "attributes": {
            "NORMAL": 9,
            "POSITION": 8,
            "TEXCOORD_0": 10
          },
          "indices": 11,
          "material": 0,
          "mode": 4
        }
      ]
    },
    {
      "name": "Tie Punisher_MetalDark_0",
      "primitives": [
        {
          "attributes": {
            "NORMAL": 13,
            "POSITION": 12,
            "TEXCOORD_0": 14
          },
          "indices": 15,
          "material": 1,
          "mode": 4
        }
      ]
    },
    {
      "name": "Tie Punisher_PolishedMetalDark_0",
      "primitives": [
        {
          "attributes": {
            "NORMAL": 17,
            "POSITION": 16,
            "TEXCOORD_0": 18
          },
          "indices": 19,
          "material": 2,
          "mode": 4
        }
      ]
    },
    {
      "name": "Tie Punisher_RedEngineGlow_0",
      "primitives": [
        {
          "attributes": {
            "NORMAL": 21,
            "POSITION": 20,
            "TEXCOORD_0": 22
          },
          "indices": 23,
          "material": 3,
          "mode": 4
        }
      ]
    },
    {
      "name": "Tie Punisher_DarkWindow_0",
      "primitives": [
        {
          "attributes": {
            "NORMAL": 25,
            "POSITION": 24,
            "TEXCOORD_0": 26
          },
          "indices": 27,
          "material": 4,
          "mode": 4
        }
      ]
    },
    {
      "name": "Tie Punisher_TieWIng_0",
      "primitives": [
        {
          "attributes": {
            "NORMAL": 29,
            "POSITION": 28,
            "TEXCOORD_0": 30
          },
          "indices": 31,
          "material": 5,
          "mode": 4
        }
      ]
    },
    {
      "name": "Tie Punisher_Dark_0",
      "primitives": [
        {
          "attributes": {
            "NORMAL": 33,
            "POSITION": 32,
            "TEXCOORD_0": 34
          },
          "indices": 35,
          "material": 6,
          "mode": 4
        }
      ]
    },
    {
      "name": "Interior_PolishedMetalDark_0",
      "primitives": [
        {
          "attributes": {
            "NORMAL": 37,
            "POSITION": 36,
            "TEXCOORD_0": 38
          },
          "indices": 39,
          "material": 2,
          "mode": 4
        }
      ]
    },
    {
      "name": "Interior_BlankScreen_0",
      "primitives": [
        {
          "attributes": {
            "NORMAL": 41,
            "POSITION": 40,
            "TEXCOORD_0": 42
          },
          "indices": 43,
          "material": 7,
          "mode": 4
        }
      ]
    }
  ],
  "nodes": [
    {
      "children": [
        1
      ],
      "matrix": [
        1.0,
        0.0,
        0.0,
        0.0,
        0.0,
        2.220446049250313e-16,
        -1.0,
        0.0,
        0.0,
        1.0,
        2.220446049250313e-16,
        0.0,
        0.0,
        0.0,
        0.0,
        1.0
      ],
      "name": "Sketchfab_model"
    },
    {
      "children": [
        2
      ],
      "matrix": [
        0.009999999776482582,
        0.0,
        0.0,
        0.0,
        0.0,
        0.0,
        0.009999999776482582,
        0.0,
        0.0,
        -0.009999999776482582,
        0.0,
        0.0,
        0.0,
        0.0,
        0.0,
        1.0
      ],
      "name": "2578db92c8bf4213aee7360478d25d85.fbx"
    },
    {
      "children": [
        3
      ],
      "name": "RootNode"
    },
    {
      "children": [
        4,
        5,
        6,
        7,
        8,
        9,
        10,
        11,
        12,
        13
      ],
      "matrix": [
        100.0,
        0.0,
        0.0,
        0.0,
        0.0,
        -1.629206793918314e-05,
        -99.99999999999868,
        0.0,
        0.0,
        99.99999999999868,
        -1.629206793918314e-05,
        0.0,
        0.0,
        0.0,
        0.0,
        1.0
      ],
      "name": "Tie Punisher"
    },
    {
      "mesh": 0,
      "name": "Tie Punisher_Metal_0"
    },
    {
      "mesh": 1,
      "name": "Tie Punisher_Metal_0"
    },
    {
      "mesh": 2,
      "name": "Tie Punisher_Metal_0"
    },
    {
      "mesh": 3,
      "name": "Tie Punisher_MetalDark_0"
    },
    {
      "mesh": 4,
      "name": "Tie Punisher_PolishedMetalDark_0"
    },
    {
      "mesh": 5,
      "name": "Tie Punisher_RedEngineGlow_0"
    },
    {
      "mesh": 6,
      "name": "Tie Punisher_DarkWindow_0"
    },
    {
      "mesh": 7,
      "name": "Tie Punisher_TieWIng_0"
    },
    {
      "mesh": 8,
      "name": "Tie Punisher_Dark_0"
    },
    {
      "children": [
        14,
        15
      ],
      "matrix": [
        1.0,
        0.0,
        0.0,
        0.0,
        0.0,
        1.0,
        -2.646977960169688e-23,
        0.0,
        0.0,
        2.646977960169688e-23,
        1.0,
        0.0,
        1.6305574178695679,
        0.0,
        0.0,
        1.0
      ],
      "name": "Interior"
    },
    {
      "mesh": 9,
      "name": "Interior_PolishedMetalDark_0"
    },
    {
      "mesh": 10,
      "name": "Interior_BlankScreen_0"
    }
  ],
  "scene": 0,
  "scenes": [
    {
      "name": "Sketchfab_Scene",
      "nodes": [
        0
      ]
    }
  ]
}
