{
  "accessors": [
    {
      "bufferView": 2,
      "componentType": 5126,
      "count": 3544,
      "max": [
        9.958736419677734,
        2.403381586074829,
        4.243490695953369
      ],
      "min": [
        -9.958819389343262,
        -0.23987531661987305,
        -11.484878540039063
      ],
      "type": "VEC3"
    },
    {
      "bufferView": 2,
      "byteOffset": 42528,
      "componentType": 5126,
      "count": 3544,
      "max": [
        1.0,
        1.0,
        0.9999970197677612
      ],
      "min": [
        -1.0,
        -1.0,
        -1.0
      ],
      "type": "VEC3"
    },
    {
      "bufferView": 1,
      "componentType": 5126,
      "count": 3544,
      "max": [
        0.7500032186508179,
        1.0
      ],
      "min": [
        0.0,
        0.0
      ],
      "type": "VEC2"
    },
    {
      "bufferView": 0,
      "componentType": 5125,
      "count": 7578,
      "type": "SCALAR"
    },
    {
      "bufferView": 2,
      "byteOffset": 85056,
      "componentType": 5126,
      "count": 510,
      "max": [
        9.77933120727539,
        2.403381586074829,
        4.103120803833008
      ],
      "min": [
        -9.779412269592285,
        2.403381586074829,
        -11.31683349609375
      ],
      "type": "VEC3"
    },
    {
      "bufferView": 2,
      "byteOffset": 91176,
      "componentType": 5126,
      "count": 510,
      "max": [
        0.0,
        1.0,
        -0.0
      ],
      "min": [
        0.0,
        1.0,
        -0.0
      ],
      "type": "VEC3"
    },
    {
      "bufferView": 1,
      "byteOffset": 28352,
      "componentType": 5126,
      "count": 510,
      "max": [
        0.7500032186508179,
        1.0
      ],
      "min": [
        0.25000593066215515,
        1.0
      ],
      "type": "VEC2"
    },
    {
      "bufferView": 0,
      "byteOffset": 30312,
      "componentType": 5125,
      "count": 1518,
      "type": "SCALAR"
    },
    {
      "bufferView": 2,
      "byteOffset": 97296,
      "componentType": 5126,
      "count": 3600,
      "max": [
        11.031386375427246,
        12.418081283569336,
        1.971466064453125
      ],
      "min": [
        -11.03138542175293,
        -0.5225845575332642,
        -12.924356460571289
      ],
      "type": "VEC3"
    },
    {
      "bufferView": 2,
      "byteOffset": 140496,
      "componentType": 5126,
      "count": 3600,
      "max": [
        0.9994622468948364,
        0.9560808539390564,
        0.9997036457061768
      ],
      "min": [
        -0.9994623064994812,
        -0.7794951796531677,
        -0.6259031891822815
      ],
      "type": "VEC3"
    },
    {
      "bufferView": 1,
      "byteOffset": 32432,
      "componentType": 5126,
      "count": 3600,
      "max": [
        0.49000000953674316,
        0.49000003933906555
      ],
      "min": [
        0.010000004433095455,
        0.010000004433095455
      ],
      "type": "VEC2"
    },
    {
      "bufferView": 0,
      "byteOffset": 36384,
      "componentType": 5125,
      "count": 5400,
      "type": "SCALAR"
    },
    {
      "bufferView": 2,
      "byteOffset": 183696,
      "componentType": 5126,
      "count": 1200,
      "max": [
        11.031386375427246,
        12.418081283569336,
        1.971466064453125
      ],
      "min": [
        -11.03138542175293,
        -0.315948486328125,
        -12.667013168334961
      ],
      "type": "VEC3"
    },
    {
      "bufferView": 2,
      "byteOffset": 198096,
      "componentType": 5126,
      "count": 1200,
      "max": [
        0.7595565915107727,
        0.07187492400407791,
        -0.2928272485733032
      ],
      "min": [
        -0.759558379650116,
        -0.9560808539390564,
        -0.9997036457061768
      ],
      "type": "VEC3"
    },
    {
      "bufferView": 1,
      "byteOffset": 61232,
      "componentType": 5126,
      "count": 1200,
      "max": [
        0.49000000953674316,
        0.49000003933906555
      ],
      "min": [
        0.010000004433095455,
        0.010000004433095455
      ],
      "type": "VEC2"
    },
    {
      "bufferView": 0,
      "byteOffset": 57984,
      "componentType": 5125,
      "count": 1800,
      "type": "SCALAR"
    },
    {
      "bufferView": 2,
      "byteOffset": 212496,
      "componentType": 5126,
      "count": 48,
      "max": [
        4.08633279800415,
        7.8686323165893555,
        -10.334729194641113
      ],
      "min": [
        -4.08633279800415,
        3.129207134246826,
        -10.747172355651855
      ],
      "type": "VEC3"
    },
    {
      "bufferView": 2,
      "byteOffset": 213072,
      "componentType": 5126,
      "count": 48,
      "max": [
        1.0,
        1.0,
        1.0
      ],
      "min": [
        -1.0,
        -1.0,
        -1.0
      ],
      "type": "VEC3"
    },
    {
      "bufferView": 1,
      "byteOffset": 70832,
      "componentType": 5126,
      "count": 48,
      "max": [
        0.875,
        1.0
      ],
      "min": [
        0.125,
        0.0
      ],
      "type": "VEC2"
    },
    {
      "bufferView": 0,
      "byteOffset": 65184,
      "componentType": 5125,
      "count": 78,
      "type": "SCALAR"
    },
    {
      "bufferView": 2,
      "byteOffset": 213648,
      "componentType": 5126,
      "count": 4,
      "max": [
        3.453504800796509,
        7.305678844451904,
        -10.589649200439453
      ],
      "min": [
        -3.453504800796509,
        3.692160129547119,
        -10.589649200439453
      ],
      "type": "VEC3"
    },
    {
      "bufferView": 2,
      "byteOffset": 213696,
      "componentType": 5126,
      "count": 4,
      "max": [
        0.0,
        0.0,
        -1.0
      ],
      "min": [
        0.0,
        0.0,
        -1.0
      ],
      "type": "VEC3"
    },
    {
      "bufferView": 1,
      "byteOffset": 71216,
      "componentType": 5126,
      "count": 4,
      "max": [
        0.625,
        0.5
      ],
      "min": [
        0.375,
        0.25
      ],
      "type": "VEC2"
    },
    {
      "bufferView": 0,
      "byteOffset": 65496,
      "componentType": 5125,
      "count": 6,
      "type": "SCALAR"
    },
    {
      "bufferView": 2,
      "byteOffset": 213744,
      "componentType": 5126,
      "count": 258,
      "max": [
        9.977581977844238,
        12.19029426574707,
        -10.737841606140137
      ],
      "min": [
        -9.977581977844238,
        2.189448833465576,
        -11.035771369934082
      ],
      "type": "VEC3"
    },
    {
      "bufferView": 2,
      "byteOffset": 216840,
      "componentType": 5126,
      "count": 258,
      "max": [
        1.0,
        0.9969449639320374,
        1.0
      ],
      "min": [
        -1.0,
        -1.0,
        -1.0
      ],
      "type": "VEC3"
    },
    {
      "bufferView": 1,
      "byteOffset": 71248,
      "componentType": 5126,
      "count": 258,
      "max": [
        0.875,
        1.0
      ],
      "min": [
        0.125,
        0.0
      ],
      "type": "VEC2"
    },
    {
      "bufferView": 0,
      "byteOffset": 65520,
      "componentType": 5125,
      "count": 408,
      "type": "SCALAR"
    }
  ],
  "asset": {
    "extras": {
      "author": "ade_11 (https://sketchfab.com/ade_11)",
      "license": "CC-BY-4.0 (http://creativecommons.org/licenses/by/4.0/)",
      "source": "https://sketchfab.com/3d-models/stage-628113e427b84004916269d41594bff3",
      "title": "Stage"
    },
    "generator": "Sketchfab-12.66.0",
    "version": "2.0"
  },
  "bufferViews": [
    {
      "buffer": 0,
      "byteLength": 67152,
      "name": "floatBufferViews",
      "target": 34963
    },
    {
      "buffer": 0,
      "byteLength": 73312,
      "byteOffset": 67152,
      "byteStride": 8,
      "name": "floatBufferViews",
      "target": 34962
    },
    {
      "buffer": 0,
      "byteLength": 219936,
      "byteOffset": 140464,
      "byteStride": 12,
      "name": "floatBufferViews",
      "target": 34962
    }
  ],
  "buffers": [
    {
      "byteLength": 360400,
      "uri": "scene.bin"
    }
  ],
  "materials": [
    {
      "doubleSided": true,
      "name": "lantai",
      "pbrMetallicRoughness": {
        "baseColorFactor": [
          0.00435976,
          0.00364471,
          0.0173877,
          1.0
        ],
        "metallicFactor": 0.0,
        "roughnessFactor": 0.5
      }
    },
    {
      "doubleSided": true,
      "name": "light_lanta",
      "pbrMetallicRoughness": {
        "baseColorFactor": [
          0.0742651,
          0.834593,
          1.0,
          1.0
        ],
        "metallicFactor": 0.0,
        "roughnessFactor": 0.5
      }
    },
    {
      "doubleSided": true,
      "name": "screen_pinggir",
      "pbrMetallicRoughness": {
        "baseColorFactor": [
          1.0,
          0.0371746,
          0.0330702,
          1.0
        ],
        "metallicFactor": 0.0,
        "roughnessFactor": 0.5
      }
    }
  ],
  "meshes": [
    {
      "name": "Object_0",
      "primitives": [
        {
          "attributes": {
            "NORMAL": 1,
            "POSITION": 0,
            "TEXCOORD_0": 2
          },
          "indices": 3,
          "material": 0,
          "mode": 4
        }
      ]
    },
    {
      "name": "Object_1",
      "primitives": [
        {
          "attributes": {
            "NORMAL": 5,
            "POSITION": 4,
            "TEXCOORD_0": 6
          },
          "indices": 7,
          "material": 1,
          "mode": 4
        }
      ]
    },
    {
      "name": "Object_2",
      "primitives": [
        {
          "attributes": {
            "NORMAL": 9,
            "POSITION": 8,
            "TEXCOORD_0": 10
          },
          "indices": 11,
          "material": 0,
          "mode": 4
        }
      ]
    },
    {
      "name": "Object_3",
      "primitives": [
        {
          "attributes": {
            "NORMAL": 13,
            "POSITION": 12,
            "TEXCOORD_0": 14
          },
          "indices": 15,
          "material": 2,
          "mode": 4
        }
      ]
    },
    {
      "name": "Object_4",
      "primitives": [
        {
          "attributes": {
            "NORMAL": 17,
            "POSITION": 16,
            "TEXCOORD_0": 18
          },
          "indices": 19,
          "material": 0,
          "mode": 4
        }
      ]
    },
    {
      "name": "Object_5",
      "primitives": [
        {
          "attributes": {
            "NORMAL": 21,
            "POSITION": 20,
            "TEXCOORD_0": 22
          },
          "indices": 23,
          "material": 2,
          "mode": 4
        }
      ]
    },
    {
      "name": "Object_6",
      "primitives": [
        {
          "attributes": {
            "NORMAL": 25,
            "POSITION": 24,
            "TEXCOORD_0": 26
          },
          "indices": 27,
          "material": 0,
          "mode": 4
        }
      ]
    }
  ],
  "nodes": [
    {
      "children": [
        1
      ],
      "matrix": [
        1.0,
        0.0,
        0.0,
        0.0,
        0.0,
        2.220446049250313e-16,
        -1.0,
        0.0,
        0.0,
        1.0,
        2.220446049250313e-16,
        0.0,
        0.0,
        0.0,
        0.0,
        1.0
      ],
      "name": "Sketchfab_model"
    },
    {
      "children": [
        2
      ],
      "name": "root"
    },
    {
      "children": [
        3,
        6,
        9,
        12
      ],
      "matrix": [
        1.0,
        0.0,
        0.0,
        0.0,
        0.0,
        2.220446049250313e-16,
        1.0,
        0.0,
        0.0,
        -1.0,
        2.220446049250313e-16,
        0.0,
        0.0,
        0.0,
        0.0,
        1.0
      ],
      "name": "GLTF_SceneRootNode"
    },
    {
      "children": [
        4,
        5
      ],
      "name": "Cylinder_2"
    },
    {
      "mesh": 0,
      "name": "Object_4"
    },
    {
      "mesh": 1,
      "name": "Object_5"
    },
    {
      "children": [
        7,
        8
      ],
      "matrix": [
        1.0,
        0.0,
        0.0,
        0.0,
        0.0,
        1.0,
        0.0,
        0.0,
        0.0,
        0.0,
        1.0,
        0.0,
        0.0,
        0.0,
        2.4016432762145996,
        1.0
      ],
      "name": "Cylinder.001_3"
    },
    {
      "mesh": 2,
      "name": "Object_7"
    },
    {
      "mesh": 3,
      "name": "Object_8"
    },
    {
      "children": [
        10,
        11
      ],
      "name": "Cube_4"
    },
    {
      "mesh": 4,
      "name": "Object_10"
    },
    {
      "mesh": 5,
      "name": "Object_11"
    },
    {
      "children": [
        13
      ],
      "name": "Cube.001_5"
    },
    {
      "mesh": 6,
      "name": "Object_13"
    }
  ],
  "scene": 0,
  "scenes": [
    {
      "name": "Sketchfab_Scene",
      "nodes": [
        0
      ]
    }
  ]
}
