{
  "accessors": [
    {
      "bufferView": 0,
      "componentType": 5123,
      "count": 30000,
      "max": [
        14940
      ],
      "min": [
        0
      ],
      "type": "SCALAR"
    },
    {
      "bufferView": 1,
      "componentType": 5126,
      "count": 14941,
      "max": [
        76.302642822265625,
        193.81150817871094,
        193.63479614257812
      ],
      "min": [
        -57.107288360595703,
        19.486850738525391,
        -53.447696685791016
      ],
      "type": "VEC3"
    },
    {
      "bufferView": 2,
      "componentType": 5126,
      "count": 14941,
      "max": [
        0.99902528524398804,
        0.9990808367729187
      ],
      "min": [
        0.00097473536152392626,
        0.00091918488033115864
      ],
      "type": "VEC2"
    },
    {
      "bufferView": 3,
      "componentType": 5126,
      "count": 14941,
      "max": [
        1,
        1,
        1
      ],
      "min": [
        -0.99980747699737549,
        -0.99999892711639404,
        -1
      ],
      "type": "VEC3"
    }
  ],
  "asset": {
    "generator": "Created by RapidCompact v6.3.1 | www.rapidcompact.com",
    "version": "2.0"
  },
  "bufferViews": [
    {
      "buffer": 0,
      "byteLength": 60000,
      "byteOffset": 0,
      "target": 34963
    },
    {
      "buffer": 0,
      "byteLength": 179292,
      "byteOffset": 60000,
      "byteStride": 12,
      "target": 34962
    },
    {
      "buffer": 0,
      "byteLength": 119528,
      "byteOffset": 239292,
      "byteStride": 8,
      "target": 34962
    },
    {
      "buffer": 0,
      "byteLength": 179292,
      "byteOffset": 358820,
      "byteStride": 12,
      "target": 34962
    }
  ],
  "buffers": [
    {
      "byteLength": 538112,
      "uri": "rapid.data.bin"
    }
  ],
  "images": [
    {
      "uri": "material0_basecolor.jpg"
    },
    {
      "uri": "material0_normal.jpg"
    },
    {
      "uri": "material0_emissive.jpg"
    },
    {
      "uri": "material0_metallic_roughness.jpg"
    }
  ],
  "materials": [
    {
      "doubleSided": true,
      "emissiveFactor": [
        1,
        1,
        1
      ],
      "emissiveTexture": {
        "index": 2
      },
      "normalTexture": {
        "index": 1
      },
      "pbrMetallicRoughness": {
        "baseColorTexture": {
          "index": 0
        },
        "metallicRoughnessTexture": {
          "index": 3
        }
      }
    }
  ],
  "meshes": [
    {
      "primitives": [
        {
          "attributes": {
            "NORMAL": 3,
            "POSITION": 1,
            "TEXCOORD_0": 2
          },
          "indices": 0,
          "material": 0,
          "mode": 4
        }
      ]
    }
  ],
  "nodes": [
    {
      "mesh": 0
    }
  ],
  "samplers": [
    {
      "wrapS": 33071,
      "wrapT": 33071
    }
  ],
  "scene": 0,
  "scenes": [
    {
      "nodes": [
        0
      ]
    }
  ],
  "textures": [
    {
      "sampler": 0,
      "source": 0
    },
    {
      "sampler": 0,
      "source": 1
    },
    {
      "sampler": 0,
      "source": 2
    },
    {
      "sampler": 0,
      "source": 3
    }
  ]
}
