{
  "accessors": [
    {
      "bufferView": 2,
      "componentType": 5126,
      "count": 1845,
      "max": [
        3.099879026412964,
        3.0998799800872803,
        15.86147689819336
      ],
      "min": [
        -3.099879026412964,
        -3.099879026412964,
        2.3647549152374268
      ],
      "type": "VEC3"
    },
    {
      "bufferView": 2,
      "byteOffset": 22140,
      "componentType": 5126,
      "count": 1845,
      "max": [
        0.9999871253967285,
        0.9999871253967285,
        1.0
      ],
      "min": [
        -0.9999871253967285,
        -0.9999871253967285,
        -1.0
      ],
      "type": "VEC3"
    },
    {
      "bufferView": 1,
      "componentType": 5126,
      "count": 1845,
      "max": [
        0.65625,
        1.0
      ],
      "min": [
        0.34375,
        -0.0
      ],
      "type": "VEC2"
    },
    {
      "bufferView": 0,
      "componentType": 5125,
      "count": 10320,
      "type": "SCALAR"
    },
    {
      "bufferView": 2,
      "byteOffset": 44280,
      "componentType": 5126,
      "count": 439,
      "max": [
        1.159208059310913,
        -2.0511629581451416,
        12.96455192565918
      ],
      "min": [
        -1.159208059310913,
        -3.7237470149993896,
        10.646136283874512
      ],
      "type": "VEC3"
    },
    {
      "bufferView": 2,
      "byteOffset": 49548,
      "componentType": 5126,
      "count": 439,
      "max": [
        1.0,
        1.0,
        1.0
      ],
      "min": [
        -1.0,
        -1.0,
        -1.0
      ],
      "type": "VEC3"
    },
    {
      "bufferView": 1,
      "byteOffset": 14760,
      "componentType": 5126,
      "count": 439,
      "max": [
        1.0,
        1.0
      ],
      "min": [
        0.0,
        0.0
      ],
      "type": "VEC2"
    },
    {
      "bufferView": 0,
      "byteOffset": 41280,
      "componentType": 5125,
      "count": 2280,
      "type": "SCALAR"
    },
    {
      "bufferView": 2,
      "byteOffset": 54816,
      "componentType": 5126,
      "count": 4615,
      "max": [
        1.4878900051116943,
        1.2723850011825562,
        13.354543685913086
      ],
      "min": [
        -1.4878900051116943,
        -3.4411280155181885,
        1.5891389846801758
      ],
      "type": "VEC3"
    },
    {
      "bufferView": 2,
      "byteOffset": 110196,
      "componentType": 5126,
      "count": 4615,
      "max": [
        0.9993593692779541,
        0.9999082088470459,
        0.9999974966049194
      ],
      "min": [
        -0.9994901418685913,
        -0.9999978542327881,
        -0.9999956488609314
      ],
      "type": "VEC3"
    },
    {
      "bufferView": 1,
      "byteOffset": 18272,
      "componentType": 5126,
      "count": 4615,
      "max": [
        1.0,
        1.0014690160751343
      ],
      "min": [
        0.0,
        0.0
      ],
      "type": "VEC2"
    },
    {
      "bufferView": 0,
      "byteOffset": 50400,
      "componentType": 5125,
      "count": 22080,
      "type": "SCALAR"
    },
    {
      "bufferView": 2,
      "byteOffset": 165576,
      "componentType": 5126,
      "count": 6329,
      "max": [
        6.128222942352295,
        6.128223896026611,
        19.068084716796875
      ],
      "min": [
        -6.128223896026611,
        -6.128222942352295,
        0.23715999722480774
      ],
      "type": "VEC3"
    },
    {
      "bufferView": 2,
      "byteOffset": 241524,
      "componentType": 5126,
      "count": 6329,
      "max": [
        1.0,
        1.0,
        1.0
      ],
      "min": [
        -1.0,
        -1.0,
        -1.0
      ],
      "type": "VEC3"
    },
    {
      "bufferView": 1,
      "byteOffset": 55192,
      "componentType": 5126,
      "count": 6329,
      "max": [
        1.0252419710159302,
        1.0095150470733643
      ],
      "min": [
        -0.018605999648571014,
        -0.014516999945044518
      ],
      "type": "VEC2"
    },
    {
      "bufferView": 0,
      "byteOffset": 138720,
      "componentType": 5125,
      "count": 28656,
      "type": "SCALAR"
    }
  ],
  "asset": {
    "extras": {
      "author": "motaman (https://sketchfab.com/motaman)",
      "license": "CC-BY-4.0 (http://creativecommons.org/licenses/by/4.0/)",
      "source": "https://sketchfab.com/3d-models/spaceship-0a073d0ab9a64b408056e82f7628b188",
      "title": "Spaceship"
    },
    "generator": "Sketchfab-12.65.0",
    "version": "2.0"
  },
  "bufferViews": [
    {
      "buffer": 0,
      "byteLength": 253344,
      "name": "floatBufferViews",
      "target": 34963
    },
    {
      "buffer": 0,
      "byteLength": 105824,
      "byteOffset": 253344,
      "byteStride": 8,
      "name": "floatBufferViews",
      "target": 34962
    },
    {
      "buffer": 0,
      "byteLength": 317472,
      "byteOffset": 359168,
      "byteStride": 12,
      "name": "floatBufferViews",
      "target": 34962
    }
  ],
  "buffers": [
    {
      "byteLength": 676640,
      "uri": "scene.bin"
    }
  ],
  "materials": [
    {
      "doubleSided": true,
      "name": "initialShadingGroup",
      "pbrMetallicRoughness": {
        "baseColorFactor": [
          0.25,
          0.25,
          0.25,
          1.0
        ],
        "metallicFactor": 0.23951981707317074,
        "roughnessFactor": 0.28220274390243905
      }
    },
    {
      "doubleSided": true,
      "name": "lambert2SG",
      "pbrMetallicRoughness": {
        "baseColorFactor": [
          0.85,
          0.0,
          0.0,
          1.0
        ],
        "metallicFactor": 0.0,
        "roughnessFactor": 0.28220274390243905
      }
    },
    {
      "doubleSided": true,
      "name": "lambert3SG",
      "pbrMetallicRoughness": {
        "baseColorFactor": [
          0.9,
          1.0,
          1.0,
          1.0
        ],
        "metallicFactor": 0.0,
        "roughnessFactor": 0.17244664634146342
      }
    },
    {
      "doubleSided": true,
      "emissiveFactor": [
        0.09718362721958504,
        0.6164572521091485,
        0.4262129103291672
      ],
      "name": "lambert4SG",
      "pbrMetallicRoughness": {
        "baseColorFactor": [
          0.12000000000000002,
          0.25999999999999995,
          0.49,
          1.0
        ],
        "metallicFactor": 0.0,
        "roughnessFactor": 0.050495426829268296
      }
    }
  ],
  "meshes": [
    {
      "name": "Object_0",
      "primitives": [
        {
          "attributes": {
            "NORMAL": 1,
            "POSITION": 0,
            "TEXCOORD_0": 2
          },
          "indices": 3,
          "material": 2,
          "mode": 4
        }
      ]
    },
    {
      "name": "Object_1",
      "primitives": [
        {
          "attributes": {
            "NORMAL": 5,
            "POSITION": 4,
            "TEXCOORD_0": 6
          },
          "indices": 7,
          "material": 3,
          "mode": 4
        }
      ]
    },
    {
      "name": "Object_2",
      "primitives": [
        {
          "attributes": {
            "NORMAL": 9,
            "POSITION": 8,
            "TEXCOORD_0": 10
          },
          "indices": 11,
          "material": 0,
          "mode": 4
        }
      ]
    },
    {
      "name": "Object_3",
      "primitives": [
        {
          "attributes": {
            "NORMAL": 13,
            "POSITION": 12,
            "TEXCOORD_0": 14
          },
          "indices": 15,
          "material": 1,
          "mode": 4
        }
      ]
    }
  ],
  "nodes": [
    {
      "children": [
        1
      ],
      "matrix": [
        1.0,
        0.0,
        0.0,
        0.0,
        0.0,
        2.220446049250313e-16,
        -1.0,
        0.0,
        0.0,
        1.0,
        2.220446049250313e-16,
        0.0,
        0.0,
        0.0,
        0.0,
        1.0
      ],
      "name": "Sketchfab_model"
    },
    {
      "children": [
        2,
        3,
        4,
        5
      ],
      "name": "navehighres.obj.cleaner.materialmerger.gles"
    },
    {
      "mesh": 0,
      "name": "Object_2"
    },
    {
      "mesh": 1,
      "name": "Object_3"
    },
    {
      "mesh": 2,
      "name": "Object_4"
    },
    {
      "mesh": 3,
      "name": "Object_5"
    }
  ],
  "scene": 0,
  "scenes": [
    {
      "name": "Sketchfab_Scene",
      "nodes": [
        0
      ]
    }
  ]
}
