{
  "accessors": [
    {
      "bufferView": 2,
      "componentType": 5126,
      "count": 11910,
      "max": [
        0.4266076385974884,
        0.3869515061378479,
        0.20388996601104736
      ],
      "min": [
        -0.4250752925872803,
        -0.3695201277732849,
        -0.17714977264404297
      ],
      "type": "VEC3"
    },
    {
      "bufferView": 2,
      "byteOffset": 142920,
      "componentType": 5126,
      "count": 11910,
      "max": [
        0.9186179637908936,
        0.9060680866241455,
        0.999984622001648
      ],
      "min": [
        -0.9280570149421692,
        -0.9999486804008484,
        -0.7245769500732422
      ],
      "type": "VEC3"
    },
    {
      "bufferView": 1,
      "componentType": 5126,
      "count": 11910,
      "max": [
        0.9795137047767639,
        0.6614727973937988
      ],
      "min": [
        0.020486561581492424,
        0.013834713026881218
      ],
      "type": "VEC2"
    },
    {
      "bufferView": 0,
      "componentType": 5125,
      "count": 64176,
      "type": "SCALAR"
    },
    {
      "bufferView": 2,
      "byteOffset": 285840,
      "componentType": 5126,
      "count": 1872,
      "max": [
        0.46070802211761475,
        2.5391476154327393,
        1.1333173513412476
      ],
      "min": [
        -0.645014762878418,
        -0.01165835838764906,
        -1.1436946392059326
      ],
      "type": "VEC3"
    },
    {
      "bufferView": 2,
      "byteOffset": 308304,
      "componentType": 5126,
      "count": 1872,
      "max": [
        0.9939145445823669,
        0.99808269739151,
        0.997940182685852
      ],
      "min": [
        -0.9935173392295837,
        -0.9989293813705444,
        -0.9976857304573059
      ],
      "type": "VEC3"
    },
    {
      "bufferView": 1,
      "byteOffset": 95280,
      "componentType": 5126,
      "count": 1872,
      "max": [
        1.0,
        1.0
      ],
      "min": [
        0.0,
        0.0
      ],
      "type": "VEC2"
    },
    {
      "bufferView": 0,
      "byteOffset": 256704,
      "componentType": 5125,
      "count": 10224,
      "type": "SCALAR"
    }
  ],
  "asset": {
    "extras": {
      "author": "Stranger-Mirchi (https://sketchfab.com/gajerapooja123)",
      "license": "CC-BY-4.0 (http://creativecommons.org/licenses/by/4.0/)",
      "source": "https://sketchfab.com/3d-models/mask-be5338f386b9402a893aec066cef2e52",
      "title": "Mask"
    },
    "generator": "Sketchfab-12.67.0",
    "version": "2.0"
  },
  "bufferViews": [
    {
      "buffer": 0,
      "byteLength": 297600,
      "name": "floatBufferViews",
      "target": 34963
    },
    {
      "buffer": 0,
      "byteLength": 110256,
      "byteOffset": 297600,
      "byteStride": 8,
      "name": "floatBufferViews",
      "target": 34962
    },
    {
      "buffer": 0,
      "byteLength": 330768,
      "byteOffset": 407856,
      "byteStride": 12,
      "name": "floatBufferViews",
      "target": 34962
    }
  ],
  "buffers": [
    {
      "byteLength": 738624,
      "uri": "scene.bin"
    }
  ],
  "images": [
    {
      "uri": "textures/lambert2_baseColor.jpeg"
    }
  ],
  "materials": [
    {
      "doubleSided": true,
      "name": "lambert2",
      "pbrMetallicRoughness": {
        "baseColorTexture": {
          "index": 0
        },
        "metallicFactor": 0.0,
        "roughnessFactor": 0.8942628736559436
      }
    },
    {
      "doubleSided": true,
      "name": "ilastick",
      "pbrMetallicRoughness": {
        "baseColorFactor": [
          0.8,
          0.8,
          0.8,
          1.0
        ],
        "metallicFactor": 0.0,
        "roughnessFactor": 0.8211145618000169
      }
    }
  ],
  "meshes": [
    {
      "name": "pPlane2_lambert2_0",
      "primitives": [
        {
          "attributes": {
            "NORMAL": 1,
            "POSITION": 0,
            "TEXCOORD_0": 2
          },
          "indices": 3,
          "material": 0,
          "mode": 4
        }
      ]
    },
    {
      "name": "NurbsPath_ilastick_0",
      "primitives": [
        {
          "attributes": {
            "NORMAL": 5,
            "POSITION": 4,
            "TEXCOORD_0": 6
          },
          "indices": 7,
          "material": 1,
          "mode": 4
        }
      ]
    }
  ],
  "nodes": [
    {
      "children": [
        1
      ],
      "matrix": [
        1.0,
        0.0,
        0.0,
        0.0,
        0.0,
        2.220446049250313e-16,
        -1.0,
        0.0,
        0.0,
        1.0,
        2.220446049250313e-16,
        0.0,
        0.0,
        0.0,
        0.0,
        1.0
      ],
      "name": "Sketchfab_model"
    },
    {
      "children": [
        2
      ],
      "matrix": [
        0.009999999776482582,
        0.0,
        0.0,
        0.0,
        0.0,
        0.0,
        0.009999999776482582,
        0.0,
        0.0,
        -0.009999999776482582,
        0.0,
        0.0,
        0.0,
        0.0,
        0.0,
        1.0
      ],
      "name": "n_mask.fbx"
    },
    {
      "children": [
        3,
        5
      ],
      "name": "RootNode"
    },
    {
      "children": [
        4
      ],
      "matrix": [
        100.0,
        0.0,
        0.0,
        0.0,
        0.0,
        99.99999999999866,
        1.6292067073209114e-05,
        0.0,
        0.0,
        -1.6292067073209114e-05,
        99.99999999999866,
        0.0,
        0.0,
        57.761837005615234,
        0.0,
        1.0
      ],
      "name": "pPlane2"
    },
    {
      "mesh": 0,
      "name": "pPlane2_lambert2_0"
    },
    {
      "children": [
        6
      ],
      "matrix": [
        3.041342148827703e-06,
        -40.283798217773324,
        2.2603259297585194e-07,
        0.0,
        -32.80477657753781,
        -2.607877817717872e-06,
        -23.380141841915894,
        0.0,
        23.38014184191584,
        1.5810838336144691e-06,
        -32.80477657753791,
        0.0,
        39.4410400390625,
        57.761837005615234,
        -12.284914016723633,
        1.0
      ],
      "name": "NurbsPath"
    },
    {
      "mesh": 1,
      "name": "NurbsPath_ilastick_0"
    }
  ],
  "samplers": [
    {
      "magFilter": 9729,
      "minFilter": 9987,
      "wrapS": 10497,
      "wrapT": 10497
    }
  ],
  "scene": 0,
  "scenes": [
    {
      "name": "Sketchfab_Scene",
      "nodes": [
        0
      ]
    }
  ],
  "textures": [
    {
      "sampler": 0,
      "source": 0
    }
  ]
}
