{
  "accessors": [
    {
      "bufferView": 0,
      "componentType": 5123,
      "count": 162,
      "max": [
        53
      ],
      "min": [
        0
      ],
      "type": "SCALAR"
    },
    {
      "bufferView": 1,
      "componentType": 5126,
      "count": 54,
      "max": [
        500.89608764648438,
        496.4307861328125,
        80.654701232910156
      ],
      "min": [
        -501.8763427734375,
        -495.30419921875,
        -53.887096405029297
      ],
      "type": "VEC3"
    },
    {
      "bufferView": 2,
      "componentType": 5126,
      "count": 54,
      "max": [
        0.78150087594985962,
        0.99911504983901978
      ],
      "min": [
        0.00097045680740848184,
        0.2856789231300354
      ],
      "type": "VEC2"
    },
    {
      "bufferView": 3,
      "componentType": 5126,
      "count": 54,
      "max": [
        3.5220009417594178e-14,
        0.1344316303730011,
        0.99092286825180054
      ],
      "min": [
        -1.3340810423869646e-14,
        0.1344316303730011,
        0.99092286825180054
      ],
      "type": "VEC3"
    },
    {
      "bufferView": 4,
      "componentType": 5123,
      "count": 7338,
      "max": [
        1428
      ],
      "min": [
        0
      ],
      "type": "SCALAR"
    },
    {
      "bufferView": 5,
      "componentType": 5126,
      "count": 1429,
      "max": [
        232.03012084960938,
        231.96066284179688,
        232.10398864746094
      ],
      "min": [
        -231.75616455078125,
        -232.34410095214844,
        -232.04011535644531
      ],
      "type": "VEC3"
    },
    {
      "bufferView": 6,
      "componentType": 5126,
      "count": 1429,
      "max": [
        0.99902951717376709,
        0.99911504983901978
      ],
      "min": [
        0.00097045680740848184,
        0.00088495161617174745
      ],
      "type": "VEC2"
    },
    {
      "bufferView": 7,
      "componentType": 5126,
      "count": 1429,
      "max": [
        0.99883145093917847,
        0.99942588806152344,
        0.99978542327880859
      ],
      "min": [
        -0.99831891059875488,
        -0.99989831447601318,
        -0.99983662366867065
      ],
      "type": "VEC3"
    }
  ],
  "asset": {
    "generator": "Created by RapidCompact v6.3.1 | www.rapidcompact.com",
    "version": "2.0"
  },
  "bufferViews": [
    {
      "buffer": 0,
      "byteLength": 324,
      "byteOffset": 0,
      "target": 34963
    },
    {
      "buffer": 0,
      "byteLength": 648,
      "byteOffset": 324,
      "byteStride": 12,
      "target": 34962
    },
    {
      "buffer": 0,
      "byteLength": 432,
      "byteOffset": 972,
      "byteStride": 8,
      "target": 34962
    },
    {
      "buffer": 0,
      "byteLength": 648,
      "byteOffset": 1404,
      "byteStride": 12,
      "target": 34962
    },
    {
      "buffer": 0,
      "byteLength": 14676,
      "byteOffset": 2052,
      "target": 34963
    },
    {
      "buffer": 0,
      "byteLength": 17148,
      "byteOffset": 16728,
      "byteStride": 12,
      "target": 34962
    },
    {
      "buffer": 0,
      "byteLength": 11432,
      "byteOffset": 33876,
      "byteStride": 8,
      "target": 34962
    },
    {
      "buffer": 0,
      "byteLength": 17148,
      "byteOffset": 45308,
      "byteStride": 12,
      "target": 34962
    }
  ],
  "buffers": [
    {
      "byteLength": 62456,
      "uri": "scene.bin"
    }
  ],
  "images": [
    {
      "uri": "material1_normal.jpg"
    }
  ],
  "materials": [
    {
      "alphaMode": "BLEND",
      "doubleSided": true,
      "name": "material",
      "normalTexture": {
        "index": 0
      },
      "pbrMetallicRoughness": {
        "baseColorFactor": [
          1,
          1,
          1,
          0.40000000000000002
        ],
        "metallicFactor": 0,
        "roughnessFactor": 0.59999999999999998
      }
    },
    {
      "doubleSided": true,
      "name": "Mat.1",
      "normalTexture": {
        "index": 0
      },
      "pbrMetallicRoughness": {
        "metallicFactor": 0,
        "roughnessFactor": 0.59999999999999998
      }
    }
  ],
  "meshes": [
    {
      "primitives": [
        {
          "attributes": {
            "NORMAL": 3,
            "POSITION": 1,
            "TEXCOORD_0": 2
          },
          "indices": 0,
          "material": 0,
          "mode": 4
        }
      ]
    },
    {
      "primitives": [
        {
          "attributes": {
            "NORMAL": 7,
            "POSITION": 5,
            "TEXCOORD_0": 6
          },
          "indices": 4,
          "material": 1,
          "mode": 4
        }
      ]
    }
  ],
  "nodes": [
    {
      "mesh": 0
    },
    {
      "mesh": 1
    }
  ],
  "samplers": [
    {
      "wrapS": 33071,
      "wrapT": 33071
    }
  ],
  "scene": 0,
  "scenes": [
    {
      "nodes": [
        0,
        1
      ]
    }
  ],
  "textures": [
    {
      "sampler": 0,
      "source": 0
    }
  ]
}
