{
  "accessors": [
    {
      "bufferView": 2,
      "componentType": 5126,
      "count": 65532,
      "max": [
        232.0,
        232.0,
        63.32484817504883
      ],
      "min": [
        -63.32484817504883,
        -232.0,
        -64.72593688964844
      ],
      "type": "VEC3"
    },
    {
      "bufferView": 2,
      "byteOffset": 786384,
      "componentType": 5126,
      "count": 65532,
      "max": [
        1.0,
        1.0,
        0.2729526460170746
      ],
      "min": [
        -0.2729526460170746,
        -1.0,
        -0.27898818254470825
      ],
      "type": "VEC3"
    },
    {
      "bufferView": 1,
      "componentType": 5126,
      "count": 65532,
      "max": [
        1.0,
        1.0
      ],
      "min": [
        0.0,
        0.0
      ],
      "type": "VEC2"
    },
    {
      "bufferView": 1,
      "byteOffset": 524256,
      "componentType": 5126,
      "count": 65532,
      "max": [
        1.0,
        1.0
      ],
      "min": [
        0.0,
        0.0
      ],
      "type": "VEC2"
    },
    {
      "bufferView": 0,
      "componentType": 5125,
      "count": 381132,
      "type": "SCALAR"
    },
    {
      "bufferView": 2,
      "byteOffset": 1572768,
      "componentType": 5126,
      "count": 65532,
      "max": [
        223.58389282226563,
        232.0,
        126.76348876953125
      ],
      "min": [
        -126.76348876953125,
        -223.19041442871094,
        -125.54013061523438
      ],
      "type": "VEC3"
    },
    {
      "bufferView": 2,
      "byteOffset": 2359152,
      "componentType": 5126,
      "count": 65532,
      "max": [
        0.9637236595153809,
        1.0,
        0.5463929176330566
      ],
      "min": [
        -0.5463929176330566,
        -0.9620275497436523,
        -0.5411217212677002
      ],
      "type": "VEC3"
    },
    {
      "bufferView": 1,
      "byteOffset": 1048512,
      "componentType": 5126,
      "count": 65532,
      "max": [
        1.0,
        1.0
      ],
      "min": [
        0.0,
        0.08800005912780762
      ],
      "type": "VEC2"
    },
    {
      "bufferView": 1,
      "byteOffset": 1572768,
      "componentType": 5126,
      "count": 65532,
      "max": [
        1.0,
        1.0
      ],
      "min": [
        0.0,
        0.08800005912780762
      ],
      "type": "VEC2"
    },
    {
      "bufferView": 0,
      "byteOffset": 1524528,
      "componentType": 5125,
      "count": 384624,
      "type": "SCALAR"
    },
    {
      "bufferView": 2,
      "byteOffset": 3145536,
      "componentType": 5126,
      "count": 65532,
      "max": [
        195.8840789794922,
        232.0,
        181.51466369628906
      ],
      "min": [
        -180.60325622558594,
        -195.09913635253906,
        -179.68470764160156
      ],
      "type": "VEC3"
    },
    {
      "bufferView": 2,
      "byteOffset": 3931920,
      "componentType": 5126,
      "count": 65532,
      "max": [
        0.8443273305892944,
        1.0,
        0.782390296459198
      ],
      "min": [
        -0.7784618735313416,
        -0.8409446477890015,
        -0.7745048403739929
      ],
      "type": "VEC3"
    },
    {
      "bufferView": 1,
      "byteOffset": 2097024,
      "componentType": 5126,
      "count": 65532,
      "max": [
        0.9570000171661377,
        1.0
      ],
      "min": [
        0.0,
        0.1820000410079956
      ],
      "type": "VEC2"
    },
    {
      "bufferView": 1,
      "byteOffset": 2621280,
      "componentType": 5126,
      "count": 65532,
      "max": [
        0.9570000171661377,
        1.0
      ],
      "min": [
        0.0,
        0.1820000410079956
      ],
      "type": "VEC2"
    },
    {
      "bufferView": 0,
      "byteOffset": 3063024,
      "componentType": 5125,
      "count": 385179,
      "type": "SCALAR"
    },
    {
      "bufferView": 2,
      "byteOffset": 4718304,
      "componentType": 5126,
      "count": 65532,
      "max": [
        219.254638671875,
        232.0,
        219.726806640625
      ],
      "min": [
        -219.254638671875,
        -146.7562713623047,
        -219.254638671875
      ],
      "type": "VEC3"
    },
    {
      "bufferView": 2,
      "byteOffset": 5504688,
      "componentType": 5126,
      "count": 65532,
      "max": [
        0.9450629353523254,
        1.0,
        0.947098433971405
      ],
      "min": [
        -0.9450629353523254,
        -0.6325697302818298,
        -0.9450629353523254
      ],
      "type": "VEC3"
    },
    {
      "bufferView": 1,
      "byteOffset": 3145536,
      "componentType": 5126,
      "count": 65532,
      "max": [
        0.9100000262260437,
        1.0
      ],
      "min": [
        0.0,
        0.2820000648498535
      ],
      "type": "VEC2"
    },
    {
      "bufferView": 1,
      "byteOffset": 3669792,
      "componentType": 5126,
      "count": 65532,
      "max": [
        0.9100000262260437,
        1.0
      ],
      "min": [
        0.0,
        0.2820000648498535
      ],
      "type": "VEC2"
    },
    {
      "bufferView": 0,
      "byteOffset": 4603740,
      "componentType": 5125,
      "count": 385779,
      "type": "SCALAR"
    },
    {
      "bufferView": 2,
      "byteOffset": 6291072,
      "componentType": 5126,
      "count": 65532,
      "max": [
        232.0,
        232.0,
        232.0
      ],
      "min": [
        -232.0,
        -75.83802032470703,
        -232.0
      ],
      "type": "VEC3"
    },
    {
      "bufferView": 2,
      "byteOffset": 7077456,
      "componentType": 5126,
      "count": 65532,
      "max": [
        1.0,
        1.0,
        1.0
      ],
      "min": [
        -1.0,
        -0.32689082622528076,
        -1.0
      ],
      "type": "VEC3"
    },
    {
      "bufferView": 1,
      "byteOffset": 4194048,
      "componentType": 5126,
      "count": 65532,
      "max": [
        0.859000027179718,
        1.0
      ],
      "min": [
        0.0,
        0.3940000534057617
      ],
      "type": "VEC2"
    },
    {
      "bufferView": 1,
      "byteOffset": 4718304,
      "componentType": 5126,
      "count": 65532,
      "max": [
        0.859000027179718,
        1.0
      ],
      "min": [
        0.0,
        0.3940000534057617
      ],
      "type": "VEC2"
    },
    {
      "bufferView": 0,
      "byteOffset": 6146856,
      "componentType": 5125,
      "count": 386433,
      "type": "SCALAR"
    },
    {
      "bufferView": 2,
      "byteOffset": 7863840,
      "componentType": 5126,
      "count": 65532,
      "max": [
        231.775634765625,
        232.0,
        230.98939514160156
      ],
      "min": [
        -231.62916564941406,
        10.200603485107422,
        -231.70697021484375
      ],
      "type": "VEC3"
    },
    {
      "bufferView": 2,
      "byteOffset": 8650224,
      "componentType": 5126,
      "count": 65532,
      "max": [
        0.9990329146385193,
        1.0,
        0.9956440925598145
      ],
      "min": [
        -0.9984015822410583,
        0.0439654104411602,
        -0.9987369775772095
      ],
      "type": "VEC3"
    },
    {
      "bufferView": 1,
      "byteOffset": 5242560,
      "componentType": 5126,
      "count": 65532,
      "max": [
        0.8040000200271606,
        1.0
      ],
      "min": [
        0.0,
        0.5139999985694885
      ],
      "type": "VEC2"
    },
    {
      "bufferView": 1,
      "byteOffset": 5766816,
      "componentType": 5126,
      "count": 65532,
      "max": [
        0.8040000200271606,
        1.0
      ],
      "min": [
        0.0,
        0.5139999985694885
      ],
      "type": "VEC2"
    },
    {
      "bufferView": 0,
      "byteOffset": 7692588,
      "componentType": 5125,
      "count": 387162,
      "type": "SCALAR"
    },
    {
      "bufferView": 2,
      "byteOffset": 9436608,
      "componentType": 5126,
      "count": 65532,
      "max": [
        205.3736572265625,
        232.0,
        176.29652404785156
      ],
      "min": [
        -203.3031463623047,
        107.91504669189453,
        -203.5988311767578
      ],
      "type": "VEC3"
    },
    {
      "bufferView": 2,
      "byteOffset": 10222992,
      "componentType": 5126,
      "count": 65532,
      "max": [
        0.8852314949035645,
        1.0,
        0.7598987221717834
      ],
      "min": [
        -0.8763066530227661,
        0.4651479721069336,
        -0.8775804042816162
      ],
      "type": "VEC3"
    },
    {
      "bufferView": 1,
      "byteOffset": 6291072,
      "componentType": 5126,
      "count": 65532,
      "max": [
        0.7409999966621399,
        1.0
      ],
      "min": [
        0.0,
        0.6540000438690186
      ],
      "type": "VEC2"
    },
    {
      "bufferView": 1,
      "byteOffset": 6815328,
      "componentType": 5126,
      "count": 65532,
      "max": [
        0.7409999966621399,
        1.0
      ],
      "min": [
        0.0,
        0.6540000438690186
      ],
      "type": "VEC2"
    },
    {
      "bufferView": 0,
      "byteOffset": 9241236,
      "componentType": 5125,
      "count": 387993,
      "type": "SCALAR"
    },
    {
      "bufferView": 2,
      "byteOffset": 11009376,
      "componentType": 5126,
      "count": 50763,
      "max": [
        120.59762573242188,
        232.0,
        218.82199096679688
      ],
      "min": [
        -116.84058380126953,
        14.567400932312012,
        -203.38385009765625
      ],
      "type": "VEC3"
    },
    {
      "bufferView": 2,
      "byteOffset": 11618532,
      "componentType": 5126,
      "count": 50763,
      "max": [
        0.5198156833648682,
        1.0,
        0.9431981444358826
      ],
      "min": [
        -0.5036211609840393,
        0.06278803944587708,
        -0.8766549229621887
      ],
      "type": "VEC3"
    },
    {
      "bufferView": 1,
      "byteOffset": 7339584,
      "componentType": 5126,
      "count": 50763,
      "max": [
        0.9980000257492065,
        1.0
      ],
      "min": [
        0.0,
        0.5200000405311584
      ],
      "type": "VEC2"
    },
    {
      "bufferView": 1,
      "byteOffset": 7745688,
      "componentType": 5126,
      "count": 50763,
      "max": [
        0.9980000257492065,
        1.0
      ],
      "min": [
        0.0,
        0.5200000405311584
      ],
      "type": "VEC2"
    },
    {
      "bufferView": 0,
      "byteOffset": 10793208,
      "componentType": 5125,
      "count": 295698,
      "type": "SCALAR"
    },
    {
      "bufferView": 2,
      "byteOffset": 12227688,
      "componentType": 5126,
      "count": 722,
      "max": [
        949.8309936523438,
        449.9154968261719,
        -0.0
      ],
      "min": [
        -50.0,
        -549.9154663085938,
        -0.0
      ],
      "type": "VEC3"
    },
    {
      "bufferView": 2,
      "byteOffset": 12236352,
      "componentType": 5126,
      "count": 722,
      "max": [
        0.0,
        0.0,
        1.0
      ],
      "min": [
        0.0,
        0.0,
        1.0
      ],
      "type": "VEC3"
    },
    {
      "bufferView": 1,
      "byteOffset": 8151792,
      "componentType": 5126,
      "count": 722,
      "max": [
        1.0,
        1.0
      ],
      "min": [
        0.0,
        0.0
      ],
      "type": "VEC2"
    },
    {
      "bufferView": 0,
      "byteOffset": 11976000,
      "componentType": 5125,
      "count": 2160,
      "type": "SCALAR"
    }
  ],
  "asset": {
    "extras": {
      "author": "uperesito (https://sketchfab.com/uperesito)",
      "license": "CC-BY-4.0 (http://creativecommons.org/licenses/by/4.0/)",
      "source": "https://sketchfab.com/3d-models/urano-b89a7d4c0f5147129b7fbac98ce70888",
      "title": "Urano"
    },
    "generator": "Sketchfab-12.67.0",
    "version": "2.0"
  },
  "bufferViews": [
    {
      "buffer": 0,
      "byteLength": 11984640,
      "name": "floatBufferViews",
      "target": 34963
    },
    {
      "buffer": 0,
      "byteLength": 8157568,
      "byteOffset": 11984640,
      "byteStride": 8,
      "name": "floatBufferViews",
      "target": 34962
    },
    {
      "buffer": 0,
      "byteLength": 12245016,
      "byteOffset": 20142208,
      "byteStride": 12,
      "name": "floatBufferViews",
      "target": 34962
    }
  ],
  "buffers": [
    {
      "byteLength": 32387224,
      "uri": "scene.bin"
    }
  ],
  "images": [
    {
      "uri": "textures/Mat.1_baseColor.png"
    },
    {
      "uri": "textures/material_baseColor.png"
    }
  ],
  "materials": [
    {
      "doubleSided": true,
      "name": "Mat.1",
      "pbrMetallicRoughness": {
        "baseColorTexture": {
          "index": 0
        },
        "metallicFactor": 0.0,
        "roughnessFactor": 0.6
      }
    },
    {
      "alphaMode": "BLEND",
      "doubleSided": true,
      "name": "material",
      "pbrMetallicRoughness": {
        "baseColorFactor": [
          1.0,
          1.0,
          1.0,
          0.4
        ],
        "baseColorTexture": {
          "index": 1
        },
        "metallicFactor": 0.0,
        "roughnessFactor": 0.6
      }
    }
  ],
  "meshes": [
    {
      "name": "Esfera_Mat.1_0",
      "primitives": [
        {
          "attributes": {
            "NORMAL": 1,
            "POSITION": 0,
            "TEXCOORD_0": 2,
            "TEXCOORD_1": 3
          },
          "indices": 4,
          "material": 0,
          "mode": 4
        }
      ]
    },
    {
      "name": "Esfera_Mat.1_0",
      "primitives": [
        {
          "attributes": {
            "NORMAL": 6,
            "POSITION": 5,
            "TEXCOORD_0": 7,
            "TEXCOORD_1": 8
          },
          "indices": 9,
          "material": 0,
          "mode": 4
        }
      ]
    },
    {
      "name": "Esfera_Mat.1_0",
      "primitives": [
        {
          "attributes": {
            "NORMAL": 11,
            "POSITION": 10,
            "TEXCOORD_0": 12,
            "TEXCOORD_1": 13
          },
          "indices": 14,
          "material": 0,
          "mode": 4
        }
      ]
    },
    {
      "name": "Esfera_Mat.1_0",
      "primitives": [
        {
          "attributes": {
            "NORMAL": 16,
            "POSITION": 15,
            "TEXCOORD_0": 17,
            "TEXCOORD_1": 18
          },
          "indices": 19,
          "material": 0,
          "mode": 4
        }
      ]
    },
    {
      "name": "Esfera_Mat.1_0",
      "primitives": [
        {
          "attributes": {
            "NORMAL": 21,
            "POSITION": 20,
            "TEXCOORD_0": 22,
            "TEXCOORD_1": 23
          },
          "indices": 24,
          "material": 0,
          "mode": 4
        }
      ]
    },
    {
      "name": "Esfera_Mat.1_0",
      "primitives": [
        {
          "attributes": {
            "NORMAL": 26,
            "POSITION": 25,
            "TEXCOORD_0": 27,
            "TEXCOORD_1": 28
          },
          "indices": 29,
          "material": 0,
          "mode": 4
        }
      ]
    },
    {
      "name": "Esfera_Mat.1_0",
      "primitives": [
        {
          "attributes": {
            "NORMAL": 31,
            "POSITION": 30,
            "TEXCOORD_0": 32,
            "TEXCOORD_1": 33
          },
          "indices": 34,
          "material": 0,
          "mode": 4
        }
      ]
    },
    {
      "name": "Esfera_Mat.1_0",
      "primitives": [
        {
          "attributes": {
            "NORMAL": 36,
            "POSITION": 35,
            "TEXCOORD_0": 37,
            "TEXCOORD_1": 38
          },
          "indices": 39,
          "material": 0,
          "mode": 4
        }
      ]
    },
    {
      "name": "Plano_Mat_0",
      "primitives": [
        {
          "attributes": {
            "NORMAL": 41,
            "POSITION": 40,
            "TEXCOORD_0": 42
          },
          "indices": 43,
          "material": 1,
          "mode": 4
        }
      ]
    }
  ],
  "nodes": [
    {
      "children": [
        1
      ],
      "matrix": [
        1.0,
        0.0,
        0.0,
        0.0,
        0.0,
        2.220446049250313e-16,
        -1.0,
        0.0,
        0.0,
        1.0,
        2.220446049250313e-16,
        0.0,
        0.0,
        0.0,
        0.0,
        1.0
      ],
      "name": "Sketchfab_model"
    },
    {
      "children": [
        2
      ],
      "matrix": [
        1.0,
        0.0,
        0.0,
        0.0,
        0.0,
        0.0,
        1.0,
        0.0,
        0.0,
        -1.0,
        0.0,
        0.0,
        0.0,
        0.0,
        0.0,
        1.0
      ],
      "name": "Urano.fbx"
    },
    {
      "children": [
        3,
        5,
        14,
        17
      ],
      "name": "RootNode"
    },
    {
      "children": [
        4
      ],
      "matrix": [
        0.8326960591498317,
        -0.235141582308473,
        -0.5013239564850335,
        0.0,
        0.2014498965959506,
        0.9719611289910043,
        -0.12128273946449755,
        0.0,
        0.5157860139998184,
        6.245004513516506e-17,
        0.8567174491990805,
        0.0,
        -963.5657348632813,
        311.8879699707031,
        480.9380798339844,
        1.0
      ],
      "name": "Cinema_4D_Editor"
    },
    {
      "name": "Object_4"
    },
    {
      "children": [
        6,
        7,
        8,
        9,
        10,
        11,
        12,
        13
      ],
      "matrix": [
        0.9999999999999962,
        1.1557589220429619e-08,
        8.665543616186969e-08,
        0.0,
        8.742278012618946e-08,
        -0.13220340515077322,
        -0.9912226085327822,
        0.0,
        6.617444900424222e-24,
        0.991222608532786,
        -0.1322034051507739,
        0.0,
        0.0,
        0.0,
        0.0,
        1.0
      ],
      "name": "Esfera"
    },
    {
      "mesh": 0,
      "name": "Esfera_Mat.1_0"
    },
    {
      "mesh": 1,
      "name": "Esfera_Mat.1_0"
    },
    {
      "mesh": 2,
      "name": "Esfera_Mat.1_0"
    },
    {
      "mesh": 3,
      "name": "Esfera_Mat.1_0"
    },
    {
      "mesh": 4,
      "name": "Esfera_Mat.1_0"
    },
    {
      "mesh": 5,
      "name": "Esfera_Mat.1_0"
    },
    {
      "mesh": 6,
      "name": "Esfera_Mat.1_0"
    },
    {
      "mesh": 7,
      "name": "Esfera_Mat.1_0"
    },
    {
      "children": [
        15
      ],
      "matrix": [
        1.0,
        0.0,
        0.0,
        0.0,
        0.0,
        2.220446049250313e-16,
        1.0,
        0.0,
        0.0,
        -1.0,
        2.220446049250313e-16,
        0.0,
        0.0,
        0.0,
        -401.3580017089844,
        1.0
      ],
      "name": "Luz"
    },
    {
      "children": [
        16
      ],
      "matrix": [
        1.0,
        0.0,
        0.0,
        0.0,
        0.0,
        2.220446049250313e-16,
        1.0,
        0.0,
        0.0,
        -1.0,
        2.220446049250313e-16,
        0.0,
        0.0,
        0.0,
        0.0,
        1.0
      ],
      "name": "Object_15"
    },
    {
      "name": "Object_16"
    },
    {
      "children": [
        18
      ],
      "matrix": [
        1.0,
        0.0,
        0.0,
        0.0,
        0.0,
        0.9908756584325961,
        0.1347791880290469,
        0.0,
        0.0,
        -0.1347791880290469,
        0.9908756584325961,
        0.0,
        0.0,
        0.0,
        0.0,
        1.0
      ],
      "name": "anillos"
    },
    {
      "children": [
        19
      ],
      "matrix": [
        1.0,
        0.0,
        0.0,
        0.0,
        0.0,
        0.9637627677705392,
        -0.2667608057029179,
        0.0,
        0.0,
        0.2667608057029179,
        0.9637627677705392,
        0.0,
        -450.0,
        50.0,
        -2.6645352591003757e-15,
        1.0
      ],
      "name": "Plano"
    },
    {
      "mesh": 8,
      "name": "Plano_Mat_0"
    }
  ],
  "samplers": [
    {
      "magFilter": 9729,
      "minFilter": 9987,
      "wrapS": 10497,
      "wrapT": 10497
    }
  ],
  "scene": 0,
  "scenes": [
    {
      "name": "Sketchfab_Scene",
      "nodes": [
        0
      ]
    }
  ],
  "textures": [
    {
      "sampler": 0,
      "source": 0
    },
    {
      "sampler": 0,
      "source": 1
    }
  ]
}
