{
  "accessors": [
    {
      "bufferView": 2,
      "componentType": 5126,
      "count": 1085,
      "max": [
        47.091068267822266,
        47.184165954589844,
        47.18416976928711
      ],
      "min": [
        -47.091064453125,
        -47.184165954589844,
        -47.18416976928711
      ],
      "type": "VEC3"
    },
    {
      "bufferView": 2,
      "byteOffset": 13020,
      "componentType": 5126,
      "count": 1085,
      "max": [
        0.9980338215827942,
        1.0,
        1.0
      ],
      "min": [
        -0.9980338215827942,
        -1.0,
        -1.0
      ],
      "type": "VEC3"
    },
    {
      "bufferView": 1,
      "componentType": 5126,
      "count": 1085,
      "max": [
        0.9901543855667114,
        1.0
      ],
      "min": [
        -0.20000004768371582,
        0.0
      ],
      "type": "VEC2"
    },
    {
      "bufferView": 0,
      "componentType": 5125,
      "count": 6000,
      "type": "SCALAR"
    },
    {
      "bufferView": 2,
      "byteOffset": 26040,
      "componentType": 5126,
      "count": 1540,
      "max": [
        50.836219787597656,
        52.06293487548828,
        50.83622360229492
      ],
      "min": [
        -50.83623123168945,
        -52.01644515991211,
        -50.83622360229492
      ],
      "type": "VEC3"
    },
    {
      "bufferView": 2,
      "byteOffset": 44520,
      "componentType": 5126,
      "count": 1540,
      "max": [
        0.9999995827674866,
        0.9962051510810852,
        1.0
      ],
      "min": [
        -0.9999995827674866,
        -0.9991138577461243,
        -1.0
      ],
      "type": "VEC3"
    },
    {
      "bufferView": 1,
      "byteOffset": 8680,
      "componentType": 5126,
      "count": 1540,
      "max": [
        0.9917857646942139,
        1.0
      ],
      "min": [
        -0.20000004768371582,
        0.0
      ],
      "type": "VEC2"
    },
    {
      "bufferView": 2,
      "byteOffset": 63000,
      "componentType": 5126,
      "count": 1540,
      "max": [
        1.1444091796875e-05,
        3.5611538887023926,
        7.62939453125e-06
      ],
      "min": [
        -1.1444091796875e-05,
        -3.498145580291748,
        -1.1444091796875e-05
      ],
      "type": "VEC3"
    },
    {
      "bufferView": 2,
      "byteOffset": 81480,
      "componentType": 5126,
      "count": 1540,
      "max": [
        0.44943320751190186,
        0.2980404794216156,
        0.45835649967193604
      ],
      "min": [
        -0.4306580722332001,
        -0.2876964807510376,
        -0.49129748344421387
      ],
      "type": "VEC3"
    },
    {
      "bufferView": 2,
      "byteOffset": 99960,
      "componentType": 5126,
      "count": 1540,
      "max": [
        2.768575668334961,
        3.5611538887023926,
        9.5367431640625e-06
      ],
      "min": [
        -2.9241418838500977,
        -3.498145580291748,
        -1.1444091796875e-05
      ],
      "type": "VEC3"
    },
    {
      "bufferView": 2,
      "byteOffset": 118440,
      "componentType": 5126,
      "count": 1540,
      "max": [
        0.4407782554626465,
        0.4421740770339966,
        0.6000102162361145
      ],
      "min": [
        -0.47600802779197693,
        -0.3982328772544861,
        -0.5599061846733093
      ],
      "type": "VEC3"
    },
    {
      "bufferView": 0,
      "byteOffset": 24000,
      "componentType": 5125,
      "count": 8640,
      "type": "SCALAR"
    },
    {
      "bufferView": 3,
      "componentType": 5126,
      "count": 101,
      "max": [
        3.3333332538604736
      ],
      "min": [
        0.0
      ],
      "type": "SCALAR"
    },
    {
      "bufferView": 4,
      "componentType": 5126,
      "count": 101,
      "max": [
        0.769420862197876,
        0.7694209218025208,
        1.0,
        1.0
      ],
      "min": [
        -0.7208394408226013,
        -0.6831962466239929,
        -0.6282462477684021,
        -0.4695484936237335
      ],
      "type": "VEC4"
    },
    {
      "bufferView": 3,
      "byteOffset": 404,
      "componentType": 5126,
      "count": 101,
      "max": [
        3.3333332538604736
      ],
      "min": [
        0.0
      ],
      "type": "SCALAR"
    },
    {
      "bufferView": 3,
      "byteOffset": 808,
      "componentType": 5126,
      "count": 202,
      "max": [
        1.0
      ],
      "min": [
        0.0
      ],
      "type": "SCALAR"
    }
  ],
  "animations": [
    {
      "channels": [
        {
          "sampler": 0,
          "target": {
            "node": 6,
            "path": "rotation"
          }
        },
        {
          "sampler": 1,
          "target": {
            "node": 7,
            "path": "weights"
          }
        }
      ],
      "name": "Take 001",
      "samplers": [
        {
          "input": 12,
          "interpolation": "LINEAR",
          "output": 13
        },
        {
          "input": 14,
          "interpolation": "LINEAR",
          "output": 15
        }
      ]
    }
  ],
  "asset": {
    "extras": {
      "author": "P3TroV (https://sketchfab.com/P3TroV)",
      "license": "CC-BY-4.0 (http://creativecommons.org/licenses/by/4.0/)",
      "source": "https://sketchfab.com/3d-models/sun-animated-test-8c3ebc78ec014042a61144f46c6f13fa",
      "title": "Sun animated test"
    },
    "generator": "Sketchfab-12.68.0",
    "version": "2.0"
  },
  "bufferViews": [
    {
      "buffer": 0,
      "byteLength": 58560,
      "name": "floatBufferViews",
      "target": 34963
    },
    {
      "buffer": 0,
      "byteLength": 21000,
      "byteOffset": 58560,
      "byteStride": 8,
      "name": "floatBufferViews",
      "target": 34962
    },
    {
      "buffer": 0,
      "byteLength": 136920,
      "byteOffset": 79560,
      "byteStride": 12,
      "name": "floatBufferViews",
      "target": 34962
    },
    {
      "buffer": 0,
      "byteLength": 1616,
      "byteOffset": 216480,
      "name": "floatBufferViews"
    },
    {
      "buffer": 0,
      "byteLength": 1616,
      "byteOffset": 218096,
      "byteStride": 16,
      "name": "floatBufferViews"
    }
  ],
  "buffers": [
    {
      "byteLength": 219712,
      "uri": "scene.bin"
    }
  ],
  "images": [
    {
      "uri": "textures/01_-_Default_baseColor.jpeg"
    }
  ],
  "materials": [
    {
      "doubleSided": true,
      "emissiveFactor": [
        0.4026331274591854,
        0.07639120027303546,
        0.0
      ],
      "name": "01_-_Default",
      "pbrMetallicRoughness": {
        "baseColorTexture": {
          "index": 0
        },
        "metallicFactor": 0.0,
        "roughnessFactor": 0.8929713596
      }
    },
    {
      "alphaMode": "BLEND",
      "doubleSided": true,
      "emissiveFactor": [
        0.5068979444783738,
        0.3494173294716473,
        0.0014352328475523558
      ],
      "name": "02_-_Default",
      "pbrMetallicRoughness": {
        "baseColorFactor": [
          0.623529,
          0.470588,
          0.0,
          0.1107575850053267
        ],
        "metallicFactor": 0.0
      }
    }
  ],
  "meshes": [
    {
      "name": "GeoSphere001_01 - Default_0",
      "primitives": [
        {
          "attributes": {
            "NORMAL": 1,
            "POSITION": 0,
            "TEXCOORD_0": 2
          },
          "indices": 3,
          "material": 0,
          "mode": 4
        }
      ]
    },
    {
      "name": "0",
      "primitives": [
        {
          "attributes": {
            "NORMAL": 5,
            "POSITION": 4,
            "TEXCOORD_0": 6
          },
          "indices": 11,
          "material": 1,
          "mode": 4,
          "targets": [
            {
              "NORMAL": 8,
              "POSITION": 7
            },
            {
              "NORMAL": 10,
              "POSITION": 9
            }
          ]
        }
      ],
      "weights": [
        0.0,
        0.0
      ]
    }
  ],
  "nodes": [
    {
      "children": [
        1
      ],
      "matrix": [
        0.021695293486118317,
        0.0,
        0.0,
        0.0,
        0.0,
        4.817322870857747e-18,
        -0.021695293486118317,
        0.0,
        0.0,
        0.021695293486118317,
        4.817322870857747e-18,
        0.0,
        0.0,
        0.0,
        0.0,
        1.0
      ],
      "name": "Sketchfab_model"
    },
    {
      "children": [
        2
      ],
      "matrix": [
        1.0,
        0.0,
        0.0,
        0.0,
        0.0,
        -1.0,
        0.0,
        0.0,
        0.0,
        0.0,
        -1.0,
        0.0,
        0.0,
        0.0,
        0.0,
        1.0
      ],
      "name": "23c71f95b90948a0bb8746260230a45e.fbx"
    },
    {
      "children": [
        3
      ],
      "name": "Object_2"
    },
    {
      "children": [
        4,
        6
      ],
      "name": "RootNode"
    },
    {
      "children": [
        5
      ],
      "name": "GeoSphere001"
    },
    {
      "mesh": 0,
      "name": "GeoSphere001_01 - Default_0"
    },
    {
      "children": [
        7
      ],
      "name": "GeoSphere002",
      "scale": [
        0.9640802145004272,
        0.9640802145004272,
        0.9640802145004272
      ]
    },
    {
      "mesh": 1,
      "name": "0"
    }
  ],
  "samplers": [
    {
      "magFilter": 9729,
      "minFilter": 9987,
      "wrapS": 10497,
      "wrapT": 10497
    }
  ],
  "scene": 0,
  "scenes": [
    {
      "name": "Sketchfab_Scene",
      "nodes": [
        0
      ]
    }
  ],
  "textures": [
    {
      "sampler": 0,
      "source": 0
    }
  ]
}
