{
  "accessors": [
    {
      "bufferView": 0,
      "componentType": 5123,
      "count": 3069,
      "max": [
        1832
      ],
      "min": [
        0
      ],
      "type": "SCALAR"
    },
    {
      "bufferView": 1,
      "componentType": 5126,
      "count": 1833,
      "max": [
        1039.674560546875,
        164.27334594726562,
        1362.856201171875
      ],
      "min": [
        -596.83648681640625,
        -40.437644958496094,
        98.283859252929688
      ],
      "type": "VEC3"
    },
    {
      "bufferView": 2,
      "componentType": 5126,
      "count": 1833,
      "max": [
        0.99902117252349854,
        0.99883031845092773
      ],
      "min": [
        0.00097884680144488811,
        0.0011696589644998312
      ],
      "type": "VEC2"
    },
    {
      "bufferView": 3,
      "componentType": 5126,
      "count": 1833,
      "max": [
        0.99586945772171021,
        0.35380852222442627,
        0.9994925856590271
      ],
      "min": [
        -0.99945318698883057,
        -0.25346267223358154,
        -0.99331176280975342
      ],
      "type": "VEC3"
    },
    {
      "bufferView": 4,
      "componentType": 5123,
      "count": 4431,
      "max": [
        1940
      ],
      "min": [
        0
      ],
      "type": "SCALAR"
    },
    {
      "bufferView": 5,
      "componentType": 5126,
      "count": 1941,
      "max": [
        1463.265869140625,
        1181.0577392578125,
        1410.9842529296875
      ],
      "min": [
        -889.4642333984375,
        -12.07376766204834,
        -372.361083984375
      ],
      "type": "VEC3"
    },
    {
      "bufferView": 6,
      "componentType": 5126,
      "count": 1941,
      "max": [
        0.9990195631980896,
        0.99876213073730469
      ],
      "min": [
        0.00098043913021683693,
        0.0012378415558487177
      ],
      "type": "VEC2"
    },
    {
      "bufferView": 7,
      "componentType": 5126,
      "count": 1941,
      "max": [
        1,
        1,
        1
      ],
      "min": [
        -1,
        -0.99991285800933838,
        -0.99999642372131348
      ],
      "type": "VEC3"
    }
  ],
  "asset": {
    "generator": "Created by RapidCompact v6.3.1 | www.rapidcompact.com",
    "version": "2.0"
  },
  "bufferViews": [
    {
      "buffer": 0,
      "byteLength": 6138,
      "byteOffset": 0,
      "target": 34963
    },
    {
      "buffer": 0,
      "byteLength": 21996,
      "byteOffset": 6140,
      "byteStride": 12,
      "target": 34962
    },
    {
      "buffer": 0,
      "byteLength": 14664,
      "byteOffset": 28136,
      "byteStride": 8,
      "target": 34962
    },
    {
      "buffer": 0,
      "byteLength": 21996,
      "byteOffset": 42800,
      "byteStride": 12,
      "target": 34962
    },
    {
      "buffer": 0,
      "byteLength": 8862,
      "byteOffset": 64796,
      "target": 34963
    },
    {
      "buffer": 0,
      "byteLength": 23292,
      "byteOffset": 73660,
      "byteStride": 12,
      "target": 34962
    },
    {
      "buffer": 0,
      "byteLength": 15528,
      "byteOffset": 96952,
      "byteStride": 8,
      "target": 34962
    },
    {
      "buffer": 0,
      "byteLength": 23292,
      "byteOffset": 112480,
      "byteStride": 12,
      "target": 34962
    }
  ],
  "buffers": [
    {
      "byteLength": 135772,
      "uri": "rapid.data.bin"
    }
  ],
  "images": [
    {
      "uri": "material1_basecolor.jpg"
    },
    {
      "uri": "material1_normal.jpg"
    },
    {
      "uri": "material1_emissive.jpg"
    },
    {
      "uri": "material1_metallic_roughness.jpg"
    },
    {
      "uri": "material0_normal.jpg"
    }
  ],
  "materials": [
    {
      "alphaCutoff": 0.72732469512195119,
      "alphaMode": "MASK",
      "doubleSided": true,
      "name": "grass1",
      "normalTexture": {
        "index": 4
      },
      "pbrMetallicRoughness": {
        "metallicFactor": 0
      }
    },
    {
      "doubleSided": true,
      "emissiveFactor": [
        1,
        1,
        1
      ],
      "emissiveTexture": {
        "index": 2
      },
      "normalTexture": {
        "index": 1
      },
      "pbrMetallicRoughness": {
        "baseColorTexture": {
          "index": 0
        },
        "metallicRoughnessTexture": {
          "index": 3
        }
      }
    }
  ],
  "meshes": [
    {
      "primitives": [
        {
          "attributes": {
            "NORMAL": 3,
            "POSITION": 1,
            "TEXCOORD_0": 2
          },
          "indices": 0,
          "material": 0,
          "mode": 4
        }
      ]
    },
    {
      "primitives": [
        {
          "attributes": {
            "NORMAL": 7,
            "POSITION": 5,
            "TEXCOORD_0": 6
          },
          "indices": 4,
          "material": 1,
          "mode": 4
        }
      ]
    }
  ],
  "nodes": [
    {
      "mesh": 0
    },
    {
      "mesh": 1
    }
  ],
  "samplers": [
    {
      "wrapS": 33071,
      "wrapT": 33071
    }
  ],
  "scene": 0,
  "scenes": [
    {
      "nodes": [
        0,
        1
      ]
    }
  ],
  "textures": [
    {
      "sampler": 0,
      "source": 0
    },
    {
      "sampler": 0,
      "source": 1
    },
    {
      "sampler": 0,
      "source": 2
    },
    {
      "sampler": 0,
      "source": 3
    },
    {
      "sampler": 0,
      "source": 4
    }
  ]
}
