{
  "accessors": [
    {
      "bufferView": 2,
      "componentType": 5126,
      "count": 2117,
      "max": [
        0.09339742362499237,
        0.12785674631595612,
        0.049270376563072205
      ],
      "min": [
        -0.0931364968419075,
        7.307953637791798e-05,
        -0.04922110587358475
      ],
      "type": "VEC3"
    },
    {
      "bufferView": 2,
      "byteOffset": 25404,
      "componentType": 5126,
      "count": 2117,
      "max": [
        0.996939480304718,
        0.999563455581665,
        0.9989957809448242
      ],
      "min": [
        -0.9802287220954895,
        -0.9997811913490295,
        -0.9995550513267517
      ],
      "type": "VEC3"
    },
    {
      "bufferView": 3,
      "componentType": 5126,
      "count": 2117,
      "max": [
        0.9994931221008301,
        0.9999991059303284,
        0.9900296330451965,
        1.0
      ],
      "min": [
        -0.999697208404541,
        -0.9927939772605896,
        -0.993532121181488,
        -1.0
      ],
      "type": "VEC4"
    },
    {
      "bufferView": 1,
      "componentType": 5126,
      "count": 2117,
      "max": [
        0.9980051517486572,
        0.9744916558265686
      ],
      "min": [
        0.000974658876657486,
        0.000974658876657486
      ],
      "type": "VEC2"
    },
    {
      "bufferView": 1,
      "byteOffset": 16936,
      "componentType": 5126,
      "count": 2117,
      "max": [
        0.9980051517486572,
        0.9744916558265686
      ],
      "min": [
        0.000974658876657486,
        0.000974658876657486
      ],
      "type": "VEC2"
    },
    {
      "bufferView": 0,
      "componentType": 5125,
      "count": 9084,
      "type": "SCALAR"
    }
  ],
  "asset": {
    "extras": {
      "author": "David Wigforss (https://sketchfab.com/dwigfor)",
      "license": "CC-BY-NC-4.0 (http://creativecommons.org/licenses/by-nc/4.0/)",
      "source": "https://sketchfab.com/3d-models/masquerade-cat-mask-1-9bb9a9af18474e03876aeab5096e1476",
      "title": "Masquerade Cat Mask 1"
    },
    "generator": "Sketchfab-12.66.0",
    "version": "2.0"
  },
  "bufferViews": [
    {
      "buffer": 0,
      "byteLength": 36336,
      "name": "floatBufferViews",
      "target": 34963
    },
    {
      "buffer": 0,
      "byteLength": 33872,
      "byteOffset": 36336,
      "byteStride": 8,
      "name": "floatBufferViews",
      "target": 34962
    },
    {
      "buffer": 0,
      "byteLength": 50808,
      "byteOffset": 70208,
      "byteStride": 12,
      "name": "floatBufferViews",
      "target": 34962
    },
    {
      "buffer": 0,
      "byteLength": 33872,
      "byteOffset": 121016,
      "byteStride": 16,
      "name": "floatBufferViews",
      "target": 34962
    }
  ],
  "buffers": [
    {
      "byteLength": 154888,
      "uri": "scene.bin"
    }
  ],
  "images": [
    {
      "uri": "textures/MAT_Mask_Masquerade_Cat1_baseColor.jpeg"
    },
    {
      "uri": "textures/MAT_Mask_Masquerade_Cat1_normal.png"
    }
  ],
  "materials": [
    {
      "doubleSided": true,
      "name": "MAT_Mask_Masquerade_Cat1",
      "normalTexture": {
        "index": 1
      },
      "pbrMetallicRoughness": {
        "baseColorTexture": {
          "index": 0
        },
        "metallicFactor": 0.0,
        "roughnessFactor": 0.9577051494623774
      }
    }
  ],
  "meshes": [
    {
      "name": "geo1_MAT_Mask_Masquerade_Cat1_0",
      "primitives": [
        {
          "attributes": {
            "NORMAL": 1,
            "POSITION": 0,
            "TANGENT": 2,
            "TEXCOORD_0": 3,
            "TEXCOORD_1": 4
          },
          "indices": 5,
          "material": 0,
          "mode": 4
        }
      ]
    }
  ],
  "nodes": [
    {
      "children": [
        1
      ],
      "matrix": [
        1.0,
        0.0,
        0.0,
        0.0,
        0.0,
        2.220446049250313e-16,
        -1.0,
        0.0,
        0.0,
        1.0,
        2.220446049250313e-16,
        0.0,
        0.0,
        0.0,
        0.0,
        1.0
      ],
      "name": "Sketchfab_model"
    },
    {
      "children": [
        2
      ],
      "matrix": [
        1.0,
        0.0,
        0.0,
        0.0,
        0.0,
        0.0,
        1.0,
        0.0,
        0.0,
        -1.0,
        0.0,
        0.0,
        0.0,
        0.0,
        0.0,
        1.0
      ],
      "name": "mesh.fbx"
    },
    {
      "children": [
        3
      ],
      "name": "RootNode"
    },
    {
      "children": [
        4
      ],
      "name": "geo1"
    },
    {
      "mesh": 0,
      "name": "geo1_MAT_Mask_Masquerade_Cat1_0"
    }
  ],
  "samplers": [
    {
      "magFilter": 9729,
      "minFilter": 9987,
      "wrapS": 10497,
      "wrapT": 10497
    }
  ],
  "scene": 0,
  "scenes": [
    {
      "name": "Sketchfab_Scene",
      "nodes": [
        0
      ]
    }
  ],
  "textures": [
    {
      "sampler": 0,
      "source": 0
    },
    {
      "sampler": 0,
      "source": 1
    }
  ]
}
